<svg version="1.1" id="Layer_1" xmlns="http://www.w3.org/2000/svg" xmlns:xlink="http://www.w3.org/1999/xlink" x="0px" y="0px"
	 width="100%" viewBox="0 0 380 314" enable-background="new 0 0 380 314" xml:space="preserve">
<path fill="#FF707A" opacity="1.000000" stroke="none" 
	d="
M347.000000,315.000000 
	C242.979111,315.000000 138.958206,315.000000 34.770638,314.689056 
	C34.278057,314.006073 34.019402,313.419067 33.616558,313.293030 
	C18.341152,308.515198 7.977922,298.696198 2.771921,283.487457 
	C2.660181,283.161041 1.611566,283.155334 1.000000,283.000000 
	C1.000000,240.979111 1.000000,198.958206 1.313186,156.773483 
	C2.196704,155.498169 2.904496,154.435226 3.316708,153.267914 
	C9.308452,136.300247 26.126299,123.633957 44.575554,123.954536 
	C57.339348,124.176315 70.110580,123.970245 83.049072,124.261887 
	C84.815895,127.351303 86.412140,130.134216 87.686440,133.102173 
	C81.351334,135.532303 75.328514,137.751968 69.327576,140.029266 
	C62.668995,142.556137 60.811783,146.670395 63.365677,153.193695 
	C66.253601,160.570190 69.135719,167.949371 72.090240,175.299286 
	C79.024101,192.548553 85.999626,209.781097 92.988739,227.397705 
	C94.704491,231.843903 96.389778,235.912827 98.069824,240.329651 
	C98.738159,242.119904 99.411728,243.562256 100.066238,245.261566 
	C100.091278,245.684570 100.135384,245.850601 100.153328,246.276779 
	C100.405457,246.731659 100.683754,246.926422 100.983353,247.471985 
	C104.351494,251.121918 107.698318,254.421051 111.351791,257.895142 
	C112.757652,258.387207 113.856873,258.704315 115.216499,259.358002 
	C121.628502,258.928101 128.218002,259.320618 133.854477,257.190887 
	C156.069595,248.796936 177.985306,239.610596 200.356079,230.654907 
	C204.414139,229.013580 208.128265,227.435608 212.154572,226.011917 
	C214.976517,227.690277 217.486267,229.214340 220.314362,230.928680 
	C223.731888,232.118835 226.831070,233.118729 229.955872,234.089630 
	C229.981491,234.060654 229.905472,234.046310 230.007080,234.247009 
	C230.333557,234.686264 230.607376,234.776901 231.351379,234.810944 
	C236.176361,235.184677 240.580063,235.467102 245.391541,235.808807 
	C252.955780,233.481201 260.112274,231.094269 267.557434,228.807266 
	C268.243713,229.009338 268.641357,229.111496 268.999390,229.597656 
	C268.936096,236.272629 274.632538,238.256592 278.138092,242.178207 
	C278.851654,242.216858 279.430084,242.069229 280.324280,241.958969 
	C281.061737,242.033249 281.483459,242.070160 281.934509,242.103210 
	C281.963837,242.099350 281.922363,242.057159 282.017517,242.291290 
	C282.385742,242.709351 282.658813,242.893265 282.961609,243.036652 
	C282.991394,242.996124 282.921326,243.070053 283.012207,243.305603 
	C283.379517,243.720123 283.655914,243.899078 283.963318,244.037964 
	C283.994293,243.997894 283.921509,244.069275 284.012573,244.304947 
	C284.380219,244.719681 284.656860,244.898743 284.963654,245.037888 
	C284.993835,244.997971 284.921692,245.068192 285.012817,245.304047 
	C285.380676,245.719147 285.657440,245.898376 285.963745,246.037720 
	C285.993317,245.997803 285.921722,246.067474 286.012360,246.303711 
	C286.379883,246.719116 286.656769,246.898270 286.963562,247.037521 
	C286.993500,246.997620 286.921967,247.068085 287.011841,247.304886 
	C287.379456,247.720169 287.657135,247.898651 287.939697,248.034729 
	C287.944580,247.992310 287.897980,248.063904 287.928528,248.352539 
	C288.320282,249.065170 288.681458,249.489151 289.173828,250.178345 
	C289.896759,250.946747 290.488495,251.449951 291.217072,252.255035 
	C292.847626,254.109802 294.153259,255.927765 295.879578,257.152954 
	C298.421265,258.956787 301.262939,260.337952 304.340088,261.926880 
	C306.471252,260.964996 308.239136,259.975372 310.000458,258.989746 
	C309.993896,258.993744 309.985138,259.006287 310.216675,258.905640 
	C310.634338,258.531799 310.820496,258.258575 311.000183,257.989563 
	C310.993744,257.993713 310.985382,258.006622 311.216919,257.906494 
	C311.634094,257.533234 311.819763,257.260071 312.000244,256.991058 
	C311.995117,256.995178 311.987335,257.006012 312.295410,256.854858 
	C316.468353,251.119644 316.376404,249.818130 311.833801,245.260941 
	C309.143402,242.561874 306.386200,239.923141 303.807037,237.121033 
	C300.836731,233.893997 298.029663,230.516693 295.380127,226.966858 
	C292.708649,221.494843 289.368561,216.742371 282.829987,215.137604 
	C282.319916,214.859283 282.089600,214.632553 282.015442,213.986847 
	C284.353638,207.082428 286.597595,200.533997 288.907745,193.581146 
	C288.361389,187.030869 287.748840,180.885040 287.105896,174.371521 
	C285.728516,170.997955 284.381470,167.992081 282.978363,164.651123 
	C281.629364,162.540436 280.336456,160.764832 278.897369,158.684723 
	C270.631012,148.034927 259.956421,142.327011 246.949509,140.408905 
	C246.691803,134.637878 246.429977,129.318832 246.626251,123.999847 
	C277.511536,123.997437 307.938934,123.932861 338.365448,124.073570 
	C342.041351,124.090569 345.847748,124.789528 349.361572,125.904106 
	C363.707916,130.454742 373.252197,140.008453 378.139191,154.282944 
	C378.618958,155.684189 380.024292,156.768555 381.000000,158.000000 
	C381.000000,198.687561 381.000000,239.375122 380.684204,280.230652 
	C379.997650,280.729370 379.405090,280.995972 379.288177,281.400177 
	C374.582428,297.664612 364.292847,308.364868 347.934998,313.128265 
	C347.480225,313.260681 347.305359,314.354492 347.000000,315.000000 
z"/>
<path fill="#000000" opacity="1.000000" stroke="none" 
	d="
M82.878487,123.955368 
	C70.110580,123.970245 57.339348,124.176315 44.575554,123.954536 
	C26.126299,123.633957 9.308452,136.300247 3.316708,153.267914 
	C2.904496,154.435226 2.196704,155.498169 1.313186,156.304825 
	C1.000000,104.390167 1.000000,52.780334 1.000000,1.000000 
	C81.687485,1.000000 162.375076,1.000000 243.832458,1.282185 
	C236.051254,13.672626 227.500259,25.780882 218.629364,38.029243 
	C217.507751,39.769520 216.706039,41.369698 215.591400,43.083908 
	C214.404144,44.416813 213.529800,45.635681 212.633591,46.885010 
	C212.000565,46.115307 211.530075,45.543228 211.012817,44.648216 
	C210.916824,43.894535 210.867599,43.463787 210.908081,42.721653 
	C210.699814,41.927086 210.401810,41.443909 210.036377,40.641895 
	C209.918777,39.892776 209.868576,39.462498 209.909302,38.721832 
	C209.702148,37.928749 209.404068,37.446049 209.038376,36.592949 
	C207.228500,30.148270 201.623215,25.178461 197.527084,26.084856 
	C181.040405,29.733034 164.572281,33.468071 148.059067,36.991829 
	C141.819824,38.323223 136.871536,41.251347 136.233063,47.883499 
	C135.652313,53.916241 135.766022,60.178631 136.725052,66.155014 
	C137.886551,73.393051 137.204483,78.111877 132.329178,81.123207 
	C119.327606,89.153915 106.299431,97.146332 93.150314,104.931839 
	C83.488617,110.652466 80.509605,114.289780 82.878487,123.955368 
z"/>
<path fill="#000000" opacity="1.000000" stroke="none" 
	d="
M381.000000,157.531342 
	C380.024292,156.768555 378.618958,155.684189 378.139191,154.282944 
	C373.252197,140.008453 363.707916,130.454742 349.361572,125.904106 
	C345.847748,124.789528 342.041351,124.090569 338.365448,124.073570 
	C307.938934,123.932861 277.511536,123.997437 246.556244,123.571625 
	C245.961731,121.411156 245.895355,119.678955 245.898224,117.584213 
	C245.679764,115.829803 245.392044,114.437935 245.416138,112.880737 
	C244.296188,107.587502 241.216904,105.878616 236.104156,107.396591 
	C233.059692,108.300491 230.023575,109.232475 226.752533,110.074173 
	C226.521347,109.996513 226.041382,109.909767 226.003769,109.550110 
	C225.918015,108.470795 225.869873,107.751137 225.911270,106.720604 
	C225.694580,105.927521 225.388367,105.445305 225.024643,104.642715 
	C224.918396,103.892479 224.869659,103.462624 224.910568,102.722504 
	C224.699051,101.930244 224.397888,101.448257 224.032883,100.646240 
	C223.919342,99.895317 223.869659,99.464409 223.910400,98.722351 
	C223.700516,97.928757 223.400177,97.446327 223.034546,96.644577 
	C223.011459,95.894928 223.053680,95.464584 223.468643,95.028275 
	C225.882843,95.709106 227.924286,96.395897 230.077423,97.360657 
	C230.762131,97.772224 231.335159,97.905846 232.040344,98.369400 
	C233.459061,99.073685 234.745605,99.448044 236.246490,99.887878 
	C236.460861,99.953346 236.900284,100.041931 236.977356,100.308861 
	C237.373276,100.658600 237.692154,100.741417 238.321838,100.945633 
	C239.410538,101.411858 240.188446,101.756668 241.074005,102.405777 
	C241.797729,102.750023 242.413788,102.789978 243.362442,102.972916 
	C246.452255,104.445732 249.209457,105.775558 252.073578,107.410461 
	C252.797607,107.750229 253.414734,107.784912 254.421600,107.880936 
	C258.219116,105.990646 261.626892,104.039017 265.308167,102.018959 
	C265.663940,101.627075 265.746185,101.303619 265.891205,100.760696 
	C265.953949,100.541237 266.037506,100.092438 266.302917,100.015274 
	C266.651398,99.620842 266.734467,99.303574 266.939056,98.682434 
	C267.387390,97.618668 267.714203,96.858788 268.305725,96.019409 
	C268.653320,95.622604 268.736237,95.305290 268.887939,94.769745 
	C268.956726,94.551514 269.043854,94.102264 269.310730,94.024307 
	C269.659637,93.627235 269.741608,93.308121 269.889008,92.769409 
	C269.954407,92.549805 270.042206,92.100037 270.309265,92.023277 
	C270.659729,91.627548 270.743103,91.308578 270.963562,90.658615 
	C272.081543,88.251869 273.062439,86.176102 274.308350,84.021210 
	C274.656036,83.624489 274.738678,83.306900 274.963379,82.653061 
	C279.002777,74.716331 282.944366,67.138107 286.785706,59.509430 
	C291.049530,51.041817 295.644714,42.705223 299.299133,33.978069 
	C302.182404,27.092535 300.135773,23.618288 293.493195,20.419256 
	C282.029358,14.898313 270.614471,9.274787 259.229614,3.592910 
	C258.289276,3.123608 257.734100,1.882506 257.000000,1.000005 
	C298.268890,1.000000 339.537781,1.000000 381.000000,1.000000 
	C381.000000,53.020733 381.000000,105.041710 381.000000,157.531342 
z"/>
<path fill="#E9E5F4" opacity="1.000000" stroke="none" 
	d="
M274.043304,84.100327 
	C273.062439,86.176102 272.081543,88.251869 270.773315,90.799049 
	C270.187958,91.486931 270.053375,91.763451 270.042206,92.100037 
	C270.042206,92.100037 269.954407,92.549805 269.698975,92.910202 
	C269.186676,93.488396 269.053436,93.765610 269.043854,94.102264 
	C269.043854,94.102264 268.956726,94.551514 268.695709,94.907883 
	C268.177246,95.482941 268.046021,95.761162 268.041016,96.098907 
	C267.714203,96.858788 267.387390,97.618668 266.746094,98.819031 
	C266.173767,99.477325 266.042419,99.754967 266.037506,100.092438 
	C266.037506,100.092438 265.953949,100.541237 265.701233,100.901581 
	C265.190765,101.476990 265.052795,101.752136 265.034668,102.087387 
	C261.626892,104.039017 258.219116,105.990646 254.368683,107.604630 
	C253.272903,107.213112 252.619797,107.159248 251.966675,107.105392 
	C249.209457,105.775558 246.452255,104.445732 243.306351,102.697510 
	C242.267227,102.219910 241.616776,102.160698 240.966339,102.101479 
	C240.188446,101.756668 239.410538,101.411858 238.181747,100.755219 
	C237.513397,100.186646 237.236542,100.052826 236.900284,100.041931 
	C236.900284,100.041931 236.460861,99.953346 236.145325,99.547020 
	C234.522598,98.773613 233.215378,98.406540 231.908173,98.039459 
	C231.335159,97.905846 230.762131,97.772224 230.053314,96.998169 
	C225.985687,92.503929 225.645691,87.357285 225.029587,82.371536 
	C224.522964,78.271622 224.346634,74.130882 224.376312,70.071335 
	C235.265244,75.014389 245.775314,79.953491 256.374908,84.692413 
	C257.573608,85.228348 259.276703,84.636185 260.745911,84.567123 
	C260.021515,83.326950 259.598907,81.457047 258.526459,80.943016 
	C246.427628,75.144028 234.229050,69.553093 222.002991,63.728569 
	C221.948715,63.550808 221.820709,63.201813 221.864624,62.768860 
	C221.946182,60.885990 221.983841,59.436066 222.371017,58.063240 
	C226.020386,59.697376 229.317490,61.260231 232.620575,62.810360 
	C242.228867,67.319519 251.807480,71.895149 261.492249,76.233742 
	C262.627747,76.742424 264.353119,75.934372 265.805054,75.736725 
	C264.929413,74.566887 264.307251,72.877968 263.138947,72.307457 
	C251.370148,66.560471 239.531189,60.955273 227.657440,55.427250 
	C225.916809,54.616863 223.891174,54.418636 221.997330,53.524876 
	C220.981262,48.038101 219.965271,42.963619 218.949280,37.889137 
	C227.500259,25.780882 236.051254,13.672626 244.301117,1.282185 
	C248.024551,1.000000 252.049088,1.000000 256.536804,1.000005 
	C257.734100,1.882506 258.289276,3.123608 259.229614,3.592910 
	C270.614471,9.274787 282.029358,14.898313 293.493195,20.419256 
	C300.135773,23.618288 302.182404,27.092535 299.299133,33.978069 
	C295.644714,42.705223 291.049530,51.041817 286.785706,59.509430 
	C282.944366,67.138107 279.002777,74.716331 274.772034,82.792068 
	C274.181366,83.485390 274.049561,83.763054 274.043304,84.100327 
M274.622192,44.790253 
	C274.783447,44.202877 274.944702,43.615505 275.023926,43.025890 
	C275.023926,43.025890 275.078430,43.087193 275.652100,42.816154 
	C275.804047,42.220997 275.955994,41.625843 276.038727,41.008137 
	C276.038727,41.008137 276.035767,41.080853 276.587677,40.969330 
	C276.786041,40.656311 276.984406,40.343292 277.732025,39.521858 
	C280.619171,33.129097 279.828461,30.783512 273.600311,27.764971 
	C270.793762,26.404751 267.899719,25.225052 264.601807,23.434870 
	C260.578369,21.544220 256.626465,19.469835 252.493408,17.860733 
	C251.009689,17.283083 248.330338,17.104141 247.495895,17.980419 
	C243.234085,22.455961 238.514603,26.874701 238.423920,34.301170 
	C237.075439,35.323486 235.726974,36.345802 233.487106,38.043907 
	C240.660080,40.959076 246.833939,43.468197 253.659912,46.258095 
	C255.736313,47.160309 257.768372,48.211372 259.922394,48.853127 
	C260.419617,49.001274 261.334320,47.748219 262.735840,47.293468 
	C266.217529,48.385174 269.771454,52.751076 273.060394,46.997936 
	C273.060394,46.997936 273.058014,47.077511 273.571045,46.740494 
	C273.747498,46.167957 273.923950,45.595417 274.022919,45.021633 
	C274.022919,45.021633 274.068207,45.084476 274.622192,44.790253 
M257.063629,63.465302 
	C259.944366,64.771477 262.753876,66.291573 265.738556,67.285683 
	C267.057648,67.725029 268.731842,67.098190 270.244843,66.955376 
	C269.366028,65.872704 268.710388,64.338448 267.574066,63.776920 
	C255.632080,57.875778 243.640091,52.072880 231.578598,46.420628 
	C230.213226,45.780792 228.336899,46.231270 226.697510,46.176163 
	C227.731049,47.583012 228.458405,49.594254 229.848007,50.298244 
	C238.612152,54.738205 247.523285,58.888042 257.063629,63.465302 
z"/>
<path fill="#000000" opacity="1.000000" stroke="none" 
	d="
M347.468658,315.000000 
	C347.305359,314.354492 347.480225,313.260681 347.934998,313.128265 
	C364.292847,308.364868 374.582428,297.664612 379.288177,281.400177 
	C379.405090,280.995972 379.997650,280.729370 380.684204,280.699280 
	C381.000000,292.259918 381.000000,303.519806 381.000000,315.000000 
	C369.980072,315.000000 358.958710,315.000000 347.468658,315.000000 
z"/>
<path fill="#000000" opacity="1.000000" stroke="none" 
	d="
M1.000000,283.468658 
	C1.611566,283.155334 2.660181,283.161041 2.771921,283.487457 
	C7.977922,298.696198 18.341152,308.515198 33.616558,313.293030 
	C34.019402,313.419067 34.278057,314.006073 34.301979,314.689056 
	C23.074581,315.000000 12.149162,315.000000 1.000000,315.000000 
	C1.000000,304.646851 1.000000,294.292084 1.000000,283.468658 
z"/>
<path fill="#EAE7F5" opacity="1.000000" stroke="none" 
	d="
M223.095886,95.034241 
	C223.053680,95.464584 223.011459,95.894928 222.805115,96.796005 
	C223.033981,97.855652 223.426987,98.444580 223.819977,99.033501 
	C223.869659,99.464409 223.919342,99.895317 223.803986,100.798859 
	C224.032928,101.858582 224.426926,102.445679 224.820923,103.032768 
	C224.869659,103.462624 224.918396,103.892479 224.797623,104.797760 
	C225.026001,105.859276 225.423874,106.445374 225.821747,107.031471 
	C225.869873,107.751137 225.918015,108.470795 225.985870,109.837921 
	C226.015762,110.677338 226.025925,110.869293 225.828690,111.364929 
	C217.417053,114.473404 209.212814,117.278198 200.687759,119.975906 
	C199.916321,119.871773 199.465698,119.874702 198.962051,119.536133 
	C197.869995,117.564926 196.757263,115.976952 195.806641,114.297226 
	C193.527405,110.269936 191.324341,106.199532 189.477509,102.075935 
	C195.219391,100.824249 200.644073,99.877930 205.887146,98.320381 
	C207.479477,97.847359 208.570435,95.686615 209.891022,94.298882 
	C208.256409,93.856194 206.526108,92.824303 205.003571,93.071617 
	C197.975159,94.213287 191.004593,95.711044 183.854553,96.764404 
	C183.192596,94.760162 182.689362,93.072685 182.590164,91.301552 
	C189.923325,89.761917 196.894974,88.471336 203.745789,86.710663 
	C205.119598,86.357590 206.033585,84.215454 207.053253,82.536331 
	C206.116333,81.822220 205.187714,81.026688 204.470108,81.185364 
	C195.961182,83.066742 187.483765,85.090492 178.625702,87.042152 
	C177.506210,87.028259 176.759048,87.049065 176.001740,86.690598 
	C175.004318,83.546524 174.017059,80.781708 173.380280,77.932091 
	C175.488571,77.230621 177.246353,76.613953 179.341309,76.006561 
	C180.109390,75.902351 180.540314,75.788872 181.361481,75.667549 
	C187.052765,74.452583 192.352127,73.238029 197.655411,72.040810 
	C201.483017,71.176727 203.467056,68.681267 202.955872,64.896973 
	C202.233078,59.545933 201.014954,54.261803 200.007507,48.590652 
	C196.728790,41.298492 194.714417,40.250156 187.688599,41.878971 
	C184.461884,42.627033 181.246201,43.422707 177.642090,44.227959 
	C173.181625,45.231110 169.104584,46.203087 164.634521,47.169281 
	C161.511108,47.785145 158.773270,48.375896 156.051865,49.034611 
	C149.522858,50.614948 147.756851,52.849380 148.160950,59.422718 
	C148.388794,63.129047 148.932816,66.815941 149.346741,70.625069 
	C151.411957,70.118324 153.139221,69.694496 155.075806,69.479797 
	C155.862732,69.734215 156.440323,69.779518 157.364899,69.929581 
	C161.123428,72.381363 164.534988,74.728386 167.962250,77.440880 
	C170.638214,81.546585 173.298431,85.286812 176.197205,89.215187 
	C176.945480,90.283890 177.455200,91.164452 177.978485,92.408524 
	C179.984238,95.523125 181.976440,98.274216 184.174866,101.172195 
	C184.556152,101.605652 184.731216,101.892212 184.931152,102.538116 
	C186.906754,106.340179 189.057571,109.691574 190.694260,113.277611 
	C191.230881,114.453339 190.810852,117.364754 190.188019,117.573654 
	C182.212128,120.249039 174.119934,122.577675 166.021027,124.547150 
	C166.168335,110.592964 160.230453,101.529152 148.778870,97.879059 
	C147.702774,97.490036 146.831955,97.371483 145.612946,97.102402 
	C143.549576,96.930168 141.834381,96.908447 139.833603,96.701195 
	C139.099976,96.536736 138.651947,96.557816 137.910461,96.457039 
	C137.079315,96.591469 136.541641,96.847748 135.694580,97.117111 
	C134.980927,97.211685 134.576660,97.293167 133.811447,97.314880 
	C125.120758,99.985489 119.374519,105.515862 116.882759,113.848091 
	C115.934433,117.019234 116.547798,120.657402 116.491425,124.403580 
	C116.635643,125.142006 116.737839,125.559586 116.807991,126.363068 
	C117.234825,128.148514 117.693695,129.548050 118.132629,131.289062 
	C119.071198,133.096741 120.029701,134.562958 121.072556,136.267883 
	C121.430145,136.685989 121.703384,136.865417 122.011299,137.297333 
	C122.154266,137.872742 122.262566,138.195633 122.146767,138.838562 
	C118.937363,140.440933 115.991318,141.826691 112.956680,142.979202 
	C109.244179,144.389206 106.939262,146.614548 106.946175,150.904816 
	C106.949516,152.977646 106.305161,155.051514 105.670425,156.936630 
	C100.611282,150.157410 95.835770,143.566467 90.994202,136.683960 
	C90.547836,135.935760 90.167519,135.479126 89.722313,134.742462 
	C89.107735,133.947342 88.558060,133.432220 88.008377,132.917114 
	C86.412140,130.134216 84.815895,127.351303 83.049072,124.261887 
	C80.509605,114.289780 83.488617,110.652466 93.150314,104.931839 
	C106.299431,97.146332 119.327606,89.153915 132.329178,81.123207 
	C137.204483,78.111877 137.886551,73.393051 136.725052,66.155014 
	C135.766022,60.178631 135.652313,53.916241 136.233063,47.883499 
	C136.871536,41.251347 141.819824,38.323223 148.059067,36.991829 
	C164.572281,33.468071 181.040405,29.733034 197.527084,26.084856 
	C201.623215,25.178461 207.228500,30.148270 208.810165,36.744934 
	C209.039154,37.855614 209.428757,38.443916 209.818359,39.032219 
	C209.868576,39.462498 209.918777,39.892776 209.807770,40.794323 
	C210.037170,41.854740 210.427765,42.443893 210.818359,43.033043 
	C210.867599,43.463787 210.916824,43.894535 210.761902,44.881634 
	C212.227081,51.657665 213.896408,57.877342 215.642883,64.406952 
	C215.774109,65.137054 215.828186,65.557220 215.665100,66.239182 
	C217.292953,74.983925 219.086899,83.478683 221.043823,91.935745 
	C221.305435,93.066322 222.391586,94.006111 223.095886,95.034241 
z"/>
<path fill="#9794E2" opacity="1.000000" stroke="none" 
	d="
M283.034454,164.986206 
	C284.381470,167.992081 285.728516,170.997955 286.917786,174.737976 
	C286.172577,177.801422 285.181091,180.111694 285.070099,182.463486 
	C284.669159,190.959457 283.407227,199.199814 279.587860,206.923523 
	C278.806610,208.503433 278.486633,210.311447 277.941040,212.300415 
	C277.880402,212.965591 277.832733,213.344650 277.455261,213.830719 
	C274.395752,216.270950 271.666016,218.604187 268.666809,221.037399 
	C267.922546,221.724228 267.447784,222.311096 266.625275,222.970551 
	C260.177917,225.985931 254.019135,228.815796 248.025116,231.959808 
	C246.710434,232.649384 245.982132,234.456863 244.983795,235.749512 
	C240.580063,235.467102 236.176361,235.184677 231.218323,234.649368 
	C230.445160,234.206146 230.192322,234.089417 229.905472,234.046310 
	C229.905472,234.046310 229.981491,234.060654 229.939423,233.732269 
	C224.596436,229.604904 219.295547,225.805954 213.839264,221.708221 
	C209.994080,216.942062 205.871643,212.753021 202.758728,207.914505 
	C200.488647,204.386032 199.549393,200.001373 198.026001,195.583557 
	C198.011734,193.785812 197.988342,192.402878 197.981018,190.615845 
	C197.983322,189.132935 197.969559,188.054153 197.960663,186.547302 
	C198.312454,183.414307 198.659393,180.709366 199.353333,177.937866 
	C200.529648,176.513931 201.575272,175.242828 202.155960,173.786346 
	C211.601700,150.095245 238.166916,139.986832 261.061981,151.360672 
	C263.268005,152.456573 265.686859,153.124100 268.251221,153.997223 
	C268.495514,154.003952 268.984192,154.014389 269.028015,154.357422 
	C272.688110,159.538055 276.734436,163.791794 283.034454,164.986206 
M277.016449,200.192169 
	C277.208069,199.388718 277.337067,198.564056 277.600586,197.784912 
	C282.998901,181.824631 274.412689,161.440094 258.506470,155.365311 
	C258.337189,156.516022 258.179199,157.590057 257.353943,158.485413 
	C254.174133,157.335419 250.994324,156.185425 247.078568,154.717270 
	C243.391983,154.493729 239.705399,154.270203 235.583710,153.479904 
	C230.115051,150.656723 225.400482,153.638733 221.414124,156.343201 
	C204.720505,167.668533 199.333252,185.705521 207.347778,204.221512 
	C211.579651,213.998383 218.754929,221.198746 230.175339,223.755692 
	C235.104919,224.334900 240.028198,225.157990 244.969437,225.285507 
	C245.946228,225.310730 246.992065,222.660797 248.764221,221.079147 
	C253.459732,218.958603 258.155243,216.838043 263.248138,215.273193 
	C271.894012,214.424316 273.815186,207.106659 277.016449,200.192169 
z"/>
<path fill="#045BEF" opacity="1.000000" stroke="none" 
	d="
M200.012131,230.718292 
	C177.985306,239.610596 156.069595,248.796936 133.854477,257.190887 
	C128.218002,259.320618 121.628502,258.928101 115.459846,259.178284 
	C115.623718,258.098175 115.804649,257.534332 115.989059,256.727692 
	C115.992531,256.484894 115.994514,255.999222 116.351189,255.988190 
	C117.420906,255.955078 118.133942,255.932999 119.259682,255.939621 
	C122.348427,255.185211 125.113792,254.623276 127.686470,253.584213 
	C149.331116,244.842438 170.991135,236.134521 192.529846,227.137115 
	C199.057877,224.410172 199.339798,222.543625 195.986542,215.631714 
	C195.649323,213.845993 195.318604,212.427963 194.965668,210.713226 
	C194.625702,209.944168 194.307968,209.471832 193.940109,208.612762 
	C193.253021,203.481232 192.616074,198.736420 191.981628,193.658585 
	C191.983475,192.881485 191.982834,192.437439 192.288635,191.995392 
	C193.003510,191.995483 193.411896,191.993561 193.912018,192.330566 
	C194.261078,193.795059 194.518417,194.920639 194.752441,196.458054 
	C197.839828,203.910553 200.950546,210.951218 203.673584,218.003235 
	C202.261902,219.012161 200.514084,219.904938 200.351608,221.027252 
	C199.891220,224.207321 200.079391,227.481293 200.012131,230.718292 
z"/>
<path fill="#13A0F3" opacity="1.000000" stroke="none" 
	d="
M87.686440,133.102173 
	C88.558060,133.432220 89.107735,133.947342 89.372620,134.795197 
	C83.647430,137.153671 78.192017,139.140213 72.770927,141.216370 
	C67.549545,143.216049 64.817390,147.803635 66.594849,152.034897 
	C73.329285,168.066269 80.441406,183.943542 86.916008,200.077591 
	C90.160797,208.163239 92.336121,216.678055 94.756546,225.165039 
	C93.998077,225.894333 93.478188,226.457367 92.958282,227.020401 
	C85.999626,209.781097 79.024101,192.548553 72.090240,175.299286 
	C69.135719,167.949371 66.253601,160.570190 63.365677,153.193695 
	C60.811783,146.670395 62.668995,142.556137 69.327576,140.029266 
	C75.328514,137.751968 81.351334,135.532303 87.686440,133.102173 
z"/>
<path fill="#0379F3" opacity="1.000000" stroke="none" 
	d="
M245.828979,117.946747 
	C245.895355,119.678955 245.961731,121.411156 246.098114,123.571579 
	C246.429977,129.318832 246.691803,134.637878 246.488541,140.446045 
	C240.349838,141.305603 234.676208,141.676010 229.012390,141.635788 
	C231.014984,133.150635 233.007782,125.076103 235.293198,116.725449 
	C238.389328,116.299034 241.192825,116.148758 244.223938,116.146133 
	C244.910675,116.844788 245.369812,117.395767 245.828979,117.946747 
z"/>
<path fill="#B1B2ED" opacity="1.000000" stroke="none" 
	d="
M229.002594,142.046417 
	C234.676208,141.676010 240.349838,141.305603 246.484421,140.898041 
	C259.956421,142.327011 270.631012,148.034927 278.523407,158.681274 
	C275.191803,157.326324 272.088013,155.670349 268.984192,154.014389 
	C268.984192,154.014389 268.495514,154.003952 268.205750,153.649490 
	C264.667694,151.220520 261.605682,148.742371 258.138580,147.141785 
	C243.557343,140.410355 221.880447,143.800980 210.804565,155.783813 
	C207.594284,159.257004 204.942841,163.246719 201.681656,167.062927 
	C200.496231,168.440735 199.520493,169.687378 198.861328,171.083481 
	C197.314819,174.359009 195.919769,177.706055 194.369995,180.660431 
	C194.522049,178.864044 194.767517,177.431396 195.207504,175.690659 
	C198.940338,168.941437 202.478683,162.500305 206.318512,155.911743 
	C212.607468,148.787643 220.676819,145.207840 229.002594,142.046417 
z"/>
<path fill="#FCD978" opacity="1.000000" stroke="none" 
	d="
M291.080261,251.953156 
	C290.488495,251.449951 289.896759,250.946747 289.130493,249.892090 
	C288.603271,248.915054 288.250641,248.489487 287.897980,248.063904 
	C287.897980,248.063904 287.944580,247.992310 287.838074,247.806763 
	C287.530090,247.336761 287.260223,247.152374 286.921967,247.068085 
	C286.921967,247.068085 286.993500,246.997620 286.861938,246.809647 
	C286.529144,246.337296 286.259583,246.152557 285.921722,246.067474 
	C285.921722,246.067474 285.993317,245.997803 285.861786,245.810043 
	C285.528778,245.338272 285.259277,245.153580 284.921692,245.068192 
	C284.921692,245.068192 284.993835,244.997971 284.861664,244.810425 
	C284.528198,244.339066 284.258881,244.154541 283.921509,244.069275 
	C283.921509,244.069275 283.994293,243.997894 283.861481,243.810608 
	C283.527618,243.339630 283.258484,243.155197 282.921326,243.070053 
	C282.921326,243.070053 282.991394,242.996124 282.859833,242.808258 
	C282.528076,242.334702 282.259430,242.146973 281.922363,242.057159 
	C281.922363,242.057159 281.963837,242.099350 281.957458,241.719299 
	C282.292694,239.886642 282.634277,238.434021 282.987915,236.990707 
	C283.000000,237.000000 282.978485,236.979370 283.229980,236.799591 
	C283.654449,236.038208 283.827423,235.456589 284.094757,234.620728 
	C284.727844,233.918320 285.266571,233.470169 286.136292,233.148727 
	C293.373657,239.083023 300.376862,244.782806 307.088074,250.807816 
	C308.165344,251.774933 307.938263,254.194962 308.314148,255.943359 
	C306.481140,256.036102 304.514435,256.601013 302.841797,256.127441 
	C298.847504,254.996567 294.991882,253.375961 291.080261,251.953156 
z"/>
<path fill="#807DD1" opacity="1.000000" stroke="none" 
	d="
M283.047760,215.252167 
	C289.368561,216.742371 292.708649,221.494843 295.012817,226.924759 
	C292.432037,228.405762 290.446960,229.691040 288.180542,230.975632 
	C287.271057,231.362518 286.642944,231.750076 285.820679,231.853088 
	C282.719208,229.014435 279.811920,226.460358 276.943420,223.618790 
	C276.655304,222.542328 276.328430,221.753372 276.192688,220.699341 
	C278.605133,218.706909 280.826447,216.979538 283.047760,215.252167 
z"/>
<path fill="#FACA58" opacity="1.000000" stroke="none" 
	d="
M286.014832,232.137665 
	C286.642944,231.750076 287.271057,231.362518 288.566467,231.004181 
	C295.503571,236.539856 301.694183,242.140457 308.077576,247.511932 
	C311.139069,250.088089 312.540955,253.075424 311.987335,257.006012 
	C311.987335,257.006012 311.995117,256.995178 311.760132,257.079529 
	C311.345215,257.444824 311.165283,257.725708 310.985382,258.006622 
	C310.985382,258.006622 310.993744,257.993713 310.760956,258.080139 
	C310.347137,258.446472 310.166138,258.726379 309.985138,259.006287 
	C309.985138,259.006287 309.993896,258.993744 309.639282,258.970886 
	C307.515381,259.931732 305.746094,260.915436 303.976837,261.899139 
	C301.262939,260.337952 298.421265,258.956787 295.879578,257.152954 
	C294.153259,255.927765 292.847626,254.109802 291.217072,252.255035 
	C294.991882,253.375961 298.847504,254.996567 302.841797,256.127441 
	C304.514435,256.601013 306.481140,256.036102 308.314148,255.943359 
	C307.938263,254.194962 308.165344,251.774933 307.088074,250.807816 
	C300.376862,244.782806 293.373657,239.083023 286.209351,232.932007 
	C285.951416,232.588562 286.014832,232.137665 286.014832,232.137665 
z"/>
<path fill="#B1B2ED" opacity="1.000000" stroke="none" 
	d="
M204.061264,217.991882 
	C200.950546,210.951218 197.839828,203.910553 195.159058,196.443268 
	C196.398285,196.010559 197.207581,196.004486 198.016861,195.998398 
	C199.549393,200.001373 200.488647,204.386032 202.758728,207.914505 
	C205.871643,212.753021 209.994080,216.942062 213.881668,222.053986 
	C216.051636,225.378494 218.023819,228.058456 219.996017,230.738419 
	C217.486267,229.214340 214.976517,227.690277 212.033478,225.712952 
	C209.087219,222.837082 206.574249,220.414474 204.061264,217.991882 
z"/>
<path fill="#EBAD25" opacity="1.000000" stroke="none" 
	d="
M312.295410,256.854858 
	C312.540955,253.075424 311.139069,250.088089 308.077576,247.511932 
	C301.694183,242.140457 295.503571,236.539856 288.847839,231.004852 
	C290.446960,229.691040 292.432037,228.405762 294.784393,227.162567 
	C298.029663,230.516693 300.836731,233.893997 303.807037,237.121033 
	C306.386200,239.923141 309.143402,242.561874 311.833801,245.260941 
	C316.376404,249.818130 316.468353,251.119644 312.295410,256.854858 
z"/>
<path fill="#8480D4" opacity="1.000000" stroke="none" 
	d="
M277.954041,212.014313 
	C278.486633,210.311447 278.806610,208.503433 279.587860,206.923523 
	C283.407227,199.199814 284.669159,190.959457 285.070099,182.463486 
	C285.181091,180.111694 286.172577,177.801422 286.948181,175.105652 
	C287.748840,180.885040 288.361389,187.030869 288.544281,193.598755 
	C286.761261,196.215744 285.327240,198.365753 284.072662,200.615784 
	C281.972839,204.381699 279.987549,208.211441 277.954041,212.014313 
z"/>
<path fill="#7F7BCF" opacity="1.000000" stroke="none" 
	d="
M245.391541,235.808823 
	C245.982132,234.456863 246.710434,232.649384 248.025116,231.959808 
	C254.019135,228.815796 260.177917,225.985931 266.625000,223.398132 
	C267.071259,225.404526 267.170013,227.055939 267.268768,228.707336 
	C260.112274,231.094269 252.955780,233.481201 245.391541,235.808823 
z"/>
<path fill="#064FED" opacity="1.000000" stroke="none" 
	d="
M203.673584,218.003235 
	C206.574249,220.414474 209.087219,222.837082 211.721283,225.558655 
	C208.128265,227.435608 204.414139,229.013580 200.356079,230.654922 
	C200.079391,227.481293 199.891220,224.207321 200.351608,221.027252 
	C200.514084,219.904938 202.261902,219.012161 203.673584,218.003235 
z"/>
<path fill="#7671C7" opacity="1.000000" stroke="none" 
	d="
M277.941040,212.300415 
	C279.987549,208.211441 281.972839,204.381699 284.072662,200.615784 
	C285.327240,198.365753 286.761261,196.215744 288.478088,194.003174 
	C286.597595,200.533997 284.353638,207.082428 281.607239,213.924057 
	C279.998260,214.052750 278.891663,213.888229 277.785095,213.723694 
	C277.832733,213.344650 277.880402,212.965591 277.941040,212.300415 
z"/>
<path fill="#0A87F0" opacity="1.000000" stroke="none" 
	d="
M115.994514,255.999207 
	C115.994514,255.999222 115.992531,256.484894 115.619293,256.732727 
	C113.845757,257.227081 112.445450,257.473633 111.045151,257.720184 
	C107.698318,254.421051 104.351494,251.121918 100.909271,247.251770 
	C100.669830,246.395020 100.458366,246.173645 100.179497,246.016647 
	C100.135384,245.850601 100.091278,245.684570 100.374695,245.199844 
	C100.468140,243.253555 100.234070,241.625977 99.999748,239.581787 
	C100.001045,237.776459 100.002586,236.387711 100.367371,235.083359 
	C102.053566,238.940735 102.907433,242.977325 104.836281,246.409836 
	C106.631683,249.604828 109.571815,252.156555 112.344086,254.995148 
	C113.128494,255.012039 113.576813,255.025238 114.200546,255.266632 
	C114.915482,255.662933 115.455002,255.831070 115.994514,255.999207 
z"/>
<path fill="#B5B0E6" opacity="1.000000" stroke="none" 
	d="
M276.001587,220.964417 
	C276.328430,221.753372 276.655304,222.542328 276.638947,223.695587 
	C275.521820,225.029907 274.747986,225.999939 273.678802,227.143402 
	C273.524170,228.989182 273.330078,230.780792 273.874512,232.309372 
	C275.049591,235.608505 276.603821,238.772598 278.002960,241.991928 
	C274.632538,238.256592 268.936096,236.272629 269.248138,229.355072 
	C270.639069,226.749603 271.741699,224.770706 273.159668,222.799805 
	C274.317200,222.193329 275.159393,221.578873 276.001587,220.964417 
z"/>
<path fill="#EBB12F" opacity="1.000000" stroke="none" 
	d="
M276.192688,220.699341 
	C275.159393,221.578873 274.317200,222.193329 272.987122,222.546158 
	C271.311584,221.835495 270.123962,221.386475 268.936310,220.937439 
	C271.666016,218.604187 274.395752,216.270950 277.455261,213.830704 
	C278.891663,213.888229 279.998260,214.052750 281.513031,214.280060 
	C282.089600,214.632553 282.319916,214.859283 282.829987,215.137619 
	C280.826447,216.979538 278.605133,218.706909 276.192688,220.699341 
z"/>
<path fill="#A7A5E8" opacity="1.000000" stroke="none" 
	d="
M220.314362,230.928680 
	C218.023819,228.058456 216.051636,225.378494 214.037048,222.352753 
	C219.295547,225.805954 224.596436,229.604904 229.913788,233.761246 
	C226.831070,233.118729 223.731888,232.118835 220.314362,230.928680 
z"/>
<path fill="#9D9BE1" opacity="1.000000" stroke="none" 
	d="
M278.138092,242.178207 
	C276.603821,238.772598 275.049591,235.608505 273.874512,232.309372 
	C273.330078,230.780792 273.524170,228.989182 273.727478,227.490524 
	C277.081512,230.144531 280.091583,232.624817 283.062317,235.416290 
	C283.008118,236.144760 282.993317,236.562057 282.978485,236.979370 
	C282.978485,236.979370 283.000000,237.000000 282.636902,237.034882 
	C281.518677,238.687027 280.763611,240.304306 280.008514,241.921600 
	C279.430084,242.069229 278.851654,242.216858 278.138092,242.178207 
z"/>
<path fill="#A7A5E8" opacity="1.000000" stroke="none" 
	d="
M269.028015,154.357422 
	C272.088013,155.670349 275.191803,157.326324 278.669586,158.985748 
	C280.336456,160.764832 281.629364,162.540436 282.978363,164.651123 
	C276.734436,163.791794 272.688110,159.538055 269.028015,154.357422 
z"/>
<path fill="#1195F2" opacity="1.000000" stroke="none" 
	d="
M100.004120,234.998978 
	C100.002586,236.387711 100.001045,237.776459 99.678909,239.580902 
	C98.930565,239.991669 98.502815,239.986710 98.075066,239.981750 
	C96.389778,235.912827 94.704491,231.843903 92.988747,227.397705 
	C93.478188,226.457367 93.998077,225.894333 95.008743,225.166290 
	C95.667595,225.001923 95.835686,225.002563 96.004089,225.334305 
	C96.006248,226.106949 96.008087,226.548477 96.052429,227.360138 
	C97.394684,230.154343 98.694443,232.578445 99.996849,235.001266 
	C99.999496,235.000000 100.004120,234.998978 100.004120,234.998978 
z"/>
<path fill="#F1CF80" opacity="1.000000" stroke="none" 
	d="
M268.666809,221.037399 
	C270.123962,221.386475 271.311584,221.835495 272.671753,222.538177 
	C271.741699,224.770706 270.639069,226.749603 269.287720,228.971069 
	C268.641357,229.111496 268.243713,229.009338 267.557434,228.807266 
	C267.170013,227.055939 267.071259,225.404526 266.972778,223.325546 
	C267.447784,222.311096 267.922546,221.724228 268.666809,221.037399 
z"/>
<path fill="#0A91EF" opacity="1.000000" stroke="none" 
	d="
M98.069824,240.329651 
	C98.502815,239.986710 98.930565,239.991669 99.679153,239.997513 
	C100.234070,241.625977 100.468140,243.253555 100.393753,244.942871 
	C99.411728,243.562256 98.738159,242.119904 98.069824,240.329651 
z"/>
<path fill="#EBAD25" opacity="1.000000" stroke="none" 
	d="
M304.340088,261.926880 
	C305.746094,260.915436 307.515381,259.931732 309.645813,258.966888 
	C308.239136,259.975372 306.471252,260.964996 304.340088,261.926880 
z"/>
<path fill="#FACA58" opacity="1.000000" stroke="none" 
	d="
M280.324280,241.958954 
	C280.763611,240.304306 281.518677,238.687027 282.624817,237.025574 
	C282.634277,238.434021 282.292694,239.886642 281.928162,241.723160 
	C281.483459,242.070160 281.061737,242.033249 280.324280,241.958954 
z"/>
<path fill="#0065F2" opacity="1.000000" stroke="none" 
	d="
M111.351791,257.895142 
	C112.445450,257.473633 113.845757,257.227081 115.615822,256.975525 
	C115.804649,257.534332 115.623718,258.098175 115.199432,258.841736 
	C113.856873,258.704315 112.757652,258.387207 111.351791,257.895142 
z"/>
<path fill="#FACA58" opacity="1.000000" stroke="none" 
	d="
M287.928528,248.352539 
	C288.250641,248.489487 288.603271,248.915054 288.999268,249.626862 
	C288.681458,249.489151 288.320282,249.065170 287.928528,248.352539 
z"/>
<path fill="#FACA58" opacity="1.000000" stroke="none" 
	d="
M286.012360,246.303711 
	C286.259583,246.152557 286.529144,246.337296 286.832031,246.849548 
	C286.656769,246.898270 286.379883,246.719116 286.012360,246.303711 
z"/>
<path fill="#FACA58" opacity="1.000000" stroke="none" 
	d="
M287.011841,247.304886 
	C287.260223,247.152374 287.530090,247.336761 287.833191,247.849182 
	C287.657135,247.898651 287.379456,247.720169 287.011841,247.304886 
z"/>
<path fill="#0A91EF" opacity="1.000000" stroke="none" 
	d="
M100.153328,246.276779 
	C100.458366,246.173645 100.669830,246.395020 100.887970,246.900970 
	C100.683754,246.926422 100.405457,246.731659 100.153328,246.276779 
z"/>
<path fill="#EBAD25" opacity="1.000000" stroke="none" 
	d="
M311.216919,257.906494 
	C311.165283,257.725708 311.345215,257.444824 311.765259,257.075439 
	C311.819763,257.260071 311.634094,257.533234 311.216919,257.906494 
z"/>
<path fill="#EBAD25" opacity="1.000000" stroke="none" 
	d="
M310.216675,258.905640 
	C310.166138,258.726379 310.347137,258.446472 310.767395,258.075989 
	C310.820496,258.258575 310.634338,258.531799 310.216675,258.905640 
z"/>
<path fill="#FACA58" opacity="1.000000" stroke="none" 
	d="
M285.012817,245.304047 
	C285.259277,245.153580 285.528778,245.338272 285.832214,245.849945 
	C285.657440,245.898376 285.380676,245.719147 285.012817,245.304047 
z"/>
<path fill="#FACA58" opacity="1.000000" stroke="none" 
	d="
M284.012573,244.304947 
	C284.258881,244.154541 284.528198,244.339066 284.831482,244.850342 
	C284.656860,244.898743 284.380219,244.719681 284.012573,244.304947 
z"/>
<path fill="#FACA58" opacity="1.000000" stroke="none" 
	d="
M283.012207,243.305603 
	C283.258484,243.155197 283.527618,243.339630 283.830505,243.850677 
	C283.655914,243.899078 283.379517,243.720123 283.012207,243.305603 
z"/>
<path fill="#FACA58" opacity="1.000000" stroke="none" 
	d="
M282.017517,242.291290 
	C282.259430,242.146973 282.528076,242.334702 282.830078,242.848785 
	C282.658813,242.893265 282.385742,242.709351 282.017517,242.291290 
z"/>
<path fill="#A7A5E8" opacity="1.000000" stroke="none" 
	d="
M230.007080,234.247009 
	C230.192322,234.089417 230.445160,234.206146 230.797058,234.558044 
	C230.607376,234.776901 230.333557,234.686264 230.007080,234.247009 
z"/>
<path fill="#C8C5DE" opacity="1.000000" stroke="none" 
	d="
M215.565735,64.097015 
	C213.896408,57.877342 212.227081,51.657665 210.808655,45.204567 
	C211.530075,45.543228 212.000565,46.115307 212.633591,46.885010 
	C213.529800,45.635681 214.404144,44.416813 215.971252,43.173027 
	C217.125153,44.432667 217.573257,45.722092 218.050140,47.000786 
	C219.051804,49.686604 220.068604,52.366776 221.092072,55.360794 
	C221.410461,56.443600 221.715973,57.214870 222.021484,57.986145 
	C221.983841,59.436066 221.946182,60.885990 221.499451,62.721199 
	C219.162979,62.957787 216.837967,60.591446 215.565735,64.097015 
z"/>
<path fill="#DCD9EC" opacity="1.000000" stroke="none" 
	d="
M221.079193,55.049263 
	C220.068604,52.366776 219.051804,49.686604 218.050140,47.000786 
	C217.573257,45.722092 217.125153,44.432667 216.284164,43.058990 
	C216.706039,41.369698 217.507751,39.769520 218.629379,38.029243 
	C219.965271,42.963619 220.981262,48.038101 221.896240,53.750450 
	C221.620499,54.677910 221.381805,54.898224 221.079193,55.049263 
z"/>
<path fill="#C8C5DE" opacity="1.000000" stroke="none" 
	d="
M210.908081,42.721657 
	C210.427765,42.443893 210.037170,41.854740 209.875183,41.113159 
	C210.401810,41.443909 210.699814,41.927086 210.908081,42.721657 
z"/>
<path fill="#C8C5DE" opacity="1.000000" stroke="none" 
	d="
M209.909302,38.721836 
	C209.428757,38.443916 209.039154,37.855614 208.877762,37.115330 
	C209.404068,37.446049 209.702148,37.928749 209.909302,38.721836 
z"/>
<path fill="#1FA6FA" opacity="1.000000" stroke="none" 
	d="
M201.008575,120.082993 
	C209.212814,117.278198 217.417053,114.473404 226.058243,111.299637 
	C226.804596,110.763023 226.967438,110.503418 226.983719,110.151840 
	C230.023575,109.232475 233.059692,108.300491 236.104156,107.396591 
	C241.216904,105.878616 244.296188,107.587502 245.117966,112.729233 
	C243.338669,111.829414 242.169327,110.915771 240.770309,109.749634 
	C238.690903,110.328995 236.841202,111.160843 234.659882,111.993782 
	C233.886063,111.997307 233.443893,111.999741 232.686035,112.049545 
	C231.909134,112.727020 231.447891,113.357117 230.588470,113.989014 
	C229.128448,113.996887 228.066620,114.002953 226.633362,114.052597 
	C215.840622,117.906998 205.393005,121.648628 195.022568,125.593185 
	C193.181137,126.293594 191.660721,127.837875 189.618469,128.993378 
	C188.497681,128.998184 187.750473,129.002090 186.687561,129.052643 
	C185.910843,129.729141 185.449844,130.359009 184.590271,130.990692 
	C183.128845,130.997040 182.065979,131.001572 180.708008,131.030304 
	C179.942154,131.370224 179.471375,131.685944 178.646088,132.046814 
	C176.528519,132.729599 174.765488,133.367233 172.654755,134.007385 
	C171.204346,134.672623 170.101608,135.335342 168.623657,136.046783 
	C154.125198,140.672272 140.019485,145.304153 125.872246,149.805557 
	C117.066063,152.607513 115.875908,153.914444 116.027863,163.057129 
	C116.249947,176.418854 116.646149,189.777878 117.007652,203.136993 
	C117.303719,214.077942 117.734612,225.015976 117.924721,235.958450 
	C117.965897,238.328476 117.233788,240.711929 116.617630,242.765625 
	C115.889000,236.965637 115.400604,231.489197 114.934235,225.574524 
	C114.592751,220.096466 114.229233,215.056671 113.893982,209.606995 
	C113.917671,207.827850 113.913086,206.458542 114.204346,204.779297 
	C114.665207,203.165039 115.001945,201.856308 114.968307,200.557159 
	C114.675842,189.264374 114.334564,177.972717 113.950775,166.682663 
	C113.912003,165.541916 113.479797,164.417374 113.260025,163.279526 
	C111.677818,155.087845 114.833755,150.210770 122.863083,147.978775 
	C128.931046,146.291992 134.969498,144.470459 140.939774,142.466644 
	C156.167526,137.355698 171.398727,132.246109 186.522507,126.839363 
	C191.517883,125.053513 196.189133,122.360962 201.008575,120.082993 
z"/>
<path fill="#1198F7" opacity="1.000000" stroke="none" 
	d="
M181.003113,131.006104 
	C182.065979,131.001572 183.128845,130.997040 184.907196,130.945770 
	C186.082870,130.268005 186.543076,129.637009 187.003281,129.005997 
	C187.750473,129.002090 188.497681,128.998184 190.003113,128.987762 
	C201.995499,124.887260 213.244965,120.834045 224.438461,116.631729 
	C225.475891,116.242249 226.157791,114.905769 227.004791,114.009018 
	C228.066620,114.002953 229.128448,113.996887 230.905930,113.944778 
	C232.081619,113.266548 232.541672,112.634361 233.001709,112.002174 
	C233.443893,111.999741 233.886063,111.997307 235.023499,111.952003 
	C237.479172,111.273468 239.239578,110.637794 241.000000,110.002129 
	C242.169327,110.915771 243.338669,111.829414 244.806152,112.894554 
	C245.392044,114.437935 245.679764,115.829803 245.898224,117.584213 
	C245.369812,117.395767 244.910675,116.844788 244.033112,115.816719 
	C239.662704,113.250374 235.989105,112.953499 232.614960,116.991066 
	C231.494247,117.000389 230.747116,117.008675 229.638687,117.055176 
	C227.179108,118.391846 225.080841,119.690292 222.651733,120.989319 
	C221.879837,120.995819 221.438751,121.001747 220.611328,121.013718 
	C218.017761,121.695580 215.770416,122.263412 213.610565,123.066559 
	C205.723206,125.999458 197.865067,129.010849 189.600021,132.003815 
	C183.800217,133.670471 178.396286,135.325974 172.993820,136.609344 
	C172.997665,135.493103 173.000061,134.748993 173.002441,134.004883 
	C174.765488,133.367233 176.528519,132.729599 178.824188,132.259750 
	C179.905579,131.953735 180.454346,131.479919 181.003113,131.006104 
z"/>
<path fill="#C8C5DE" opacity="1.000000" stroke="none" 
	d="
M223.468628,95.028275 
	C222.391586,94.006111 221.305435,93.066322 221.043823,91.935745 
	C219.086899,83.478683 217.292953,74.983925 216.003906,66.373337 
	C219.041306,67.186356 221.522736,68.127014 224.008362,69.302826 
	C224.012543,69.537979 224.023911,70.008240 224.023911,70.008240 
	C224.346634,74.130882 224.522964,78.271622 225.029587,82.371536 
	C225.645691,87.357285 225.985687,92.503929 229.941620,96.720215 
	C227.924286,96.395897 225.882843,95.709106 223.468628,95.028275 
z"/>
<path fill="#C8C5DE" opacity="1.000000" stroke="none" 
	d="
M232.040344,98.369400 
	C233.215378,98.406540 234.522598,98.773613 235.930969,99.481552 
	C234.745605,99.448044 233.459061,99.073685 232.040344,98.369400 
z"/>
<path fill="#C8C5DE" opacity="1.000000" stroke="none" 
	d="
M241.074005,102.405777 
	C241.616776,102.160698 242.267227,102.219910 242.973755,102.554527 
	C242.413788,102.789978 241.797729,102.750023 241.074005,102.405777 
z"/>
<path fill="#C8C5DE" opacity="1.000000" stroke="none" 
	d="
M225.911270,106.720604 
	C225.423874,106.445374 225.026001,105.859276 224.855133,105.118134 
	C225.388367,105.445305 225.694580,105.927521 225.911270,106.720604 
z"/>
<path fill="#C8C5DE" opacity="1.000000" stroke="none" 
	d="
M252.073578,107.410469 
	C252.619797,107.159248 253.272903,107.213112 253.978943,107.543289 
	C253.414734,107.784912 252.797607,107.750229 252.073578,107.410469 
z"/>
<path fill="#C8C5DE" opacity="1.000000" stroke="none" 
	d="
M223.910416,98.722351 
	C223.426987,98.444580 223.033981,97.855652 222.870422,97.115311 
	C223.400177,97.446327 223.700516,97.928757 223.910416,98.722351 
z"/>
<path fill="#C8C5DE" opacity="1.000000" stroke="none" 
	d="
M224.910568,102.722504 
	C224.426926,102.445679 224.032928,101.858582 223.867828,101.118881 
	C224.397888,101.448257 224.699051,101.930244 224.910568,102.722504 
z"/>
<path fill="#C8C5DE" opacity="1.000000" stroke="none" 
	d="
M266.302917,100.015274 
	C266.042419,99.754967 266.173767,99.477325 266.624573,99.122910 
	C266.734467,99.303574 266.651398,99.620842 266.302917,100.015274 
z"/>
<path fill="#C8C5DE" opacity="1.000000" stroke="none" 
	d="
M236.977356,100.308861 
	C237.236542,100.052826 237.513397,100.186646 237.870941,100.633804 
	C237.692154,100.741417 237.373276,100.658600 236.977356,100.308861 
z"/>
<path fill="#C8C5DE" opacity="1.000000" stroke="none" 
	d="
M270.309265,92.023277 
	C270.053375,91.763451 270.187958,91.486931 270.636230,91.130035 
	C270.743103,91.308578 270.659729,91.627548 270.309265,92.023277 
z"/>
<path fill="#C8C5DE" opacity="1.000000" stroke="none" 
	d="
M265.308167,102.018951 
	C265.052795,101.752136 265.190765,101.476990 265.638489,101.121048 
	C265.746185,101.303619 265.663940,101.627075 265.308167,102.018951 
z"/>
<path fill="#C8C5DE" opacity="1.000000" stroke="none" 
	d="
M226.752533,110.074181 
	C226.967438,110.503418 226.804596,110.763023 226.265640,110.995956 
	C226.025925,110.869293 226.015762,110.677338 226.023499,110.197578 
	C226.041382,109.909767 226.521347,109.996513 226.752533,110.074181 
z"/>
<path fill="#C8C5DE" opacity="1.000000" stroke="none" 
	d="
M274.308350,84.021210 
	C274.049561,83.763054 274.181366,83.485390 274.630005,83.128311 
	C274.738678,83.306900 274.656036,83.624489 274.308350,84.021210 
z"/>
<path fill="#C8C5DE" opacity="1.000000" stroke="none" 
	d="
M268.305725,96.019417 
	C268.046021,95.761162 268.177246,95.482941 268.626953,95.126114 
	C268.736237,95.305290 268.653320,95.622604 268.305725,96.019417 
z"/>
<path fill="#C8C5DE" opacity="1.000000" stroke="none" 
	d="
M269.310730,94.024307 
	C269.053436,93.765610 269.186676,93.488396 269.633575,93.129807 
	C269.741608,93.308121 269.659637,93.627235 269.310730,94.024307 
z"/>
<path fill="#F8928B" opacity="1.000000" stroke="none" 
	d="
M265.045380,23.963436 
	C267.899719,25.225052 270.793762,26.404751 273.600311,27.764971 
	C279.828461,30.783512 280.619171,33.129097 277.207153,39.879677 
	C276.466766,40.518620 276.251282,40.799736 276.035767,41.080853 
	C276.035767,41.080853 276.038727,41.008137 275.813477,41.186493 
	C275.418304,41.938965 275.248352,42.513077 275.078430,43.087189 
	C275.078430,43.087193 275.023926,43.025890 274.805481,43.194534 
	C274.414093,43.936943 274.241150,44.510708 274.068207,45.084476 
	C274.068207,45.084476 274.022919,45.021633 273.802582,45.189751 
	C273.407501,45.931080 273.232758,46.504295 273.058014,47.077507 
	C273.058014,47.077511 273.060394,46.997936 272.695587,47.051682 
	C267.973450,49.606094 264.861237,45.605587 261.040222,44.557503 
	C260.469299,41.818764 259.965393,39.478451 259.293030,36.355724 
	C256.596283,37.357708 254.286972,38.215729 251.721222,38.773026 
	C250.970306,35.314445 250.475861,32.156586 250.388031,29.002983 
	C252.149811,29.010311 253.504944,29.013386 254.899567,29.398808 
	C255.235855,32.580212 256.913452,33.647213 259.383484,32.641418 
	C262.024414,31.566019 262.493469,29.464243 261.220520,26.877302 
	C262.689270,25.814817 263.867340,24.889126 265.045380,23.963436 
z"/>
<path fill="#99A6E7" opacity="1.000000" stroke="none" 
	d="
M221.092072,55.360794 
	C221.381805,54.898224 221.620499,54.677910 221.896332,54.162743 
	C223.891174,54.418636 225.916809,54.616863 227.657440,55.427250 
	C239.531189,60.955273 251.370148,66.560471 263.138947,72.307457 
	C264.307251,72.877968 264.929413,74.566887 265.805054,75.736725 
	C264.353119,75.934372 262.627747,76.742424 261.492249,76.233742 
	C251.807480,71.895149 242.228867,67.319519 232.620575,62.810360 
	C229.317490,61.260231 226.020386,59.697376 222.371017,58.063236 
	C221.715973,57.214870 221.410461,56.443600 221.092072,55.360794 
z"/>
<path fill="#F9A39D" opacity="1.000000" stroke="none" 
	d="
M254.860092,29.016464 
	C253.504944,29.013386 252.149811,29.010311 250.012665,28.986607 
	C245.808853,30.621479 242.387070,32.276981 238.965271,33.932487 
	C238.514603,26.874701 243.234085,22.455961 247.495895,17.980419 
	C248.330338,17.104141 251.009689,17.283083 252.493408,17.860733 
	C256.626465,19.469835 260.578369,21.544220 264.823608,23.699150 
	C263.867340,24.889126 262.689270,25.814817 260.892395,26.833443 
	C258.469086,27.623074 256.664581,28.319769 254.860092,29.016464 
z"/>
<path fill="#99A6E7" opacity="1.000000" stroke="none" 
	d="
M256.724731,63.299507 
	C247.523285,58.888042 238.612152,54.738205 229.848007,50.298244 
	C228.458405,49.594254 227.731049,47.583012 226.697510,46.176163 
	C228.336899,46.231270 230.213226,45.780792 231.578598,46.420628 
	C243.640091,52.072880 255.632080,57.875778 267.574066,63.776920 
	C268.710388,64.338448 269.366028,65.872704 270.244843,66.955376 
	C268.731842,67.098190 267.057648,67.725029 265.738556,67.285683 
	C262.753876,66.291573 259.944366,64.771477 256.724731,63.299507 
z"/>
<path fill="#98A5E7" opacity="1.000000" stroke="none" 
	d="
M224.376312,70.071335 
	C224.023911,70.008240 224.012543,69.537979 223.878784,68.978760 
	C223.182434,66.915138 222.619843,65.410736 222.057251,63.906334 
	C234.229050,69.553093 246.427628,75.144028 258.526459,80.943016 
	C259.598907,81.457047 260.021515,83.326950 260.745911,84.567123 
	C259.276703,84.636185 257.573608,85.228348 256.374908,84.692413 
	C245.775314,79.953491 235.265244,75.014389 224.376312,70.071335 
z"/>
<path fill="#A7C4F3" opacity="1.000000" stroke="none" 
	d="
M238.694595,34.116829 
	C242.387070,32.276981 245.808853,30.621479 249.606033,28.982353 
	C250.475861,32.156586 250.970306,35.314445 251.735718,39.160282 
	C252.340408,41.891281 252.674118,43.934299 253.007812,45.977318 
	C246.833939,43.468197 240.660080,40.959076 233.487106,38.043907 
	C235.726974,36.345802 237.075439,35.323486 238.694595,34.116829 
z"/>
<path fill="#C1A1E4" opacity="1.000000" stroke="none" 
	d="
M253.333862,46.117706 
	C252.674118,43.934299 252.340408,41.891281 251.992188,39.461006 
	C254.286972,38.215729 256.596283,37.357708 259.293030,36.355724 
	C259.965393,39.478451 260.469299,41.818764 261.034790,44.870445 
	C261.416534,46.101200 261.736725,46.620586 262.056915,47.139969 
	C261.334320,47.748219 260.419617,49.001274 259.922394,48.853127 
	C257.768372,48.211372 255.736313,47.160309 253.333862,46.117706 
z"/>
<path fill="#8480D4" opacity="1.000000" stroke="none" 
	d="
M222.002991,63.728573 
	C222.619843,65.410736 223.182434,66.915138 223.874603,68.743607 
	C221.522736,68.127014 219.041306,67.186356 216.221069,66.111542 
	C215.828186,65.557220 215.774109,65.137054 215.642883,64.406952 
	C216.837967,60.591446 219.162979,62.957787 221.455551,63.154152 
	C221.820709,63.201813 221.948715,63.550808 222.002991,63.728573 
z"/>
<path fill="#F2877F" opacity="1.000000" stroke="none" 
	d="
M262.396362,47.216721 
	C261.736725,46.620586 261.416534,46.101200 261.101807,45.268867 
	C264.861237,45.605587 267.973450,49.606094 272.717224,47.085106 
	C269.771454,52.751076 266.217529,48.385174 262.396362,47.216721 
z"/>
<path fill="#F2877F" opacity="1.000000" stroke="none" 
	d="
M275.365265,42.951672 
	C275.248352,42.513077 275.418304,41.938965 275.848083,41.197769 
	C275.955994,41.625843 275.804047,42.220997 275.365265,42.951672 
z"/>
<path fill="#F2877F" opacity="1.000000" stroke="none" 
	d="
M273.314514,46.909000 
	C273.232758,46.504295 273.407501,45.931080 273.841309,45.190369 
	C273.923950,45.595417 273.747498,46.167957 273.314514,46.909000 
z"/>
<path fill="#F2877F" opacity="1.000000" stroke="none" 
	d="
M274.345215,44.937363 
	C274.241150,44.510708 274.414093,43.936943 274.846497,43.195656 
	C274.944702,43.615505 274.783447,44.202877 274.345215,44.937363 
z"/>
<path fill="#F2877F" opacity="1.000000" stroke="none" 
	d="
M276.311707,41.025093 
	C276.251282,40.799736 276.466766,40.518620 276.932556,40.133888 
	C276.984406,40.343292 276.786041,40.656311 276.311707,41.025093 
z"/>
<path fill="#017AE7" opacity="1.000000" stroke="none" 
	d="
M113.908501,205.089249 
	C113.913086,206.458542 113.917671,207.827850 113.523407,209.611862 
	C108.739052,212.022614 104.353546,214.018646 99.680977,215.856796 
	C98.274376,214.127625 97.154831,212.556320 96.017227,210.599548 
	C94.617218,205.838226 93.537544,201.337723 91.794151,197.110977 
	C87.351814,186.340851 82.613037,175.693024 77.987946,164.629089 
	C76.440025,161.785217 75.108185,159.141937 73.312103,156.864853 
	C68.972450,151.363022 70.083183,144.983002 76.194756,142.481064 
	C81.082108,140.480240 86.100197,138.798752 91.060257,136.975525 
	C95.835770,143.566467 100.611282,150.157410 105.731735,157.257446 
	C107.050240,159.240509 108.023811,160.714447 109.166229,162.524841 
	C109.883781,164.523117 110.795937,166.158783 110.917839,167.851364 
	C111.426338,174.912109 111.566658,181.999802 112.097786,189.058350 
	C112.501007,194.417053 113.290749,199.746689 113.908501,205.089249 
z"/>
<path fill="#55BDCB" opacity="1.000000" stroke="none" 
	d="
M180.971222,75.675392 
	C180.540314,75.788872 180.109390,75.902351 178.895844,76.000946 
	C172.261932,76.802719 167.764359,75.271233 166.384338,69.000603 
	C168.735352,67.558044 171.808426,66.500641 172.464798,64.606010 
	C174.767746,57.958614 176.238693,51.022984 178.025513,44.196785 
	C181.246201,43.422707 184.461884,42.627033 187.688599,41.878971 
	C194.714417,40.250156 196.728790,41.298492 199.999725,49.045135 
	C200.275269,52.631519 200.417877,55.427784 200.865784,58.174259 
	C202.236816,66.581551 200.783966,68.905441 192.677002,70.898865 
	C189.958847,71.567238 187.179001,72.068077 184.556061,73.005592 
	C183.214432,73.485123 182.157059,74.759987 180.971222,75.675392 
z"/>
<path fill="#30B0FA" opacity="1.000000" stroke="none" 
	d="
M114.204346,204.779297 
	C113.290749,199.746689 112.501007,194.417053 112.097786,189.058350 
	C111.566658,181.999802 111.426338,174.912109 110.917839,167.851364 
	C110.795937,166.158783 109.883781,164.523117 109.534958,162.301147 
	C109.863327,160.769745 110.104134,159.798294 110.102646,158.827225 
	C110.089973,150.548126 111.634438,148.380768 119.348259,145.762894 
	C122.002220,144.862213 124.605682,143.812729 127.520180,142.839111 
	C128.312210,142.636169 128.816269,142.425369 129.697845,142.194946 
	C141.128387,138.595154 152.181412,135.014938 163.449127,131.382156 
	C163.900604,131.157990 164.139221,130.988953 164.791992,130.849213 
	C176.474564,127.209839 187.744827,123.543739 199.015076,119.877640 
	C199.465698,119.874702 199.916321,119.871773 200.687759,119.975914 
	C196.189133,122.360962 191.517883,125.053513 186.522507,126.839363 
	C171.398727,132.246109 156.167526,137.355698 140.939774,142.466644 
	C134.969498,144.470459 128.931046,146.291992 122.863083,147.978775 
	C114.833755,150.210770 111.677818,155.087845 113.260025,163.279526 
	C113.479797,164.417374 113.912003,165.541916 113.950775,166.682663 
	C114.334564,177.972717 114.675842,189.264374 114.968307,200.557159 
	C115.001945,201.856308 114.665207,203.165039 114.204346,204.779297 
z"/>
<path fill="#0A91EF" opacity="1.000000" stroke="none" 
	d="
M90.994202,136.683960 
	C86.100197,138.798752 81.082108,140.480240 76.194756,142.481064 
	C70.083183,144.983002 68.972450,151.363022 73.312103,156.864853 
	C75.108185,159.141937 76.440025,161.785217 77.844528,164.961212 
	C77.887619,167.557205 77.765450,169.547852 78.316460,171.330383 
	C79.338722,174.637360 80.686234,177.851013 82.018349,181.053604 
	C86.315071,191.383575 90.666405,201.690811 95.009583,212.417450 
	C95.349579,216.886444 95.676674,220.944824 96.003769,225.003204 
	C95.835686,225.002563 95.667595,225.001923 95.247314,225.000031 
	C92.336121,216.678055 90.160797,208.163239 86.916008,200.077591 
	C80.441406,183.943542 73.329285,168.066269 66.594849,152.034897 
	C64.817390,147.803635 67.549545,143.216049 72.770927,141.216370 
	C78.192017,139.140213 83.647430,137.153671 89.437515,135.075211 
	C90.167519,135.479126 90.547836,135.935760 90.994202,136.683960 
z"/>
<path fill="#E65551" opacity="1.000000" stroke="none" 
	d="
M148.984146,98.149521 
	C160.230453,101.529152 166.168335,110.592964 165.900757,124.797714 
	C165.567215,125.988403 165.317719,126.481392 164.657166,126.981102 
	C162.063889,127.527489 159.857162,127.985252 157.705887,128.628418 
	C155.247543,129.363388 153.930679,128.696732 153.975540,125.627304 
	C154.358704,123.847321 154.724869,122.438843 155.445465,120.927956 
	C158.272095,115.520935 156.761566,112.862999 150.606720,112.082314 
	C150.388535,112.093193 149.959503,112.175652 149.670868,112.053528 
	C148.972443,111.860985 148.562653,111.790573 147.999176,111.543037 
	C147.562408,111.232857 147.282013,111.094345 147.061890,110.544891 
	C147.419891,106.437256 147.720306,102.735123 148.224548,98.936157 
	C148.700958,98.679756 148.886215,98.449814 148.984146,98.149521 
z"/>
<path fill="#62C2CF" opacity="1.000000" stroke="none" 
	d="
M177.642090,44.227959 
	C176.238693,51.022984 174.767746,57.958614 172.464798,64.606010 
	C171.808426,66.500641 168.735352,67.558044 165.991089,68.945526 
	C162.395676,68.458557 159.373428,66.214508 157.017914,69.824829 
	C156.440323,69.779518 155.862732,69.734215 155.144592,69.111916 
	C155.968063,67.223740 156.860931,65.852501 157.908539,64.611923 
	C162.172684,59.562340 165.421646,54.117939 165.027542,47.175064 
	C169.104584,46.203087 173.181625,45.231110 177.642090,44.227959 
z"/>
<path fill="#72C9D4" opacity="1.000000" stroke="none" 
	d="
M164.634521,47.169281 
	C165.421646,54.117939 162.172684,59.562340 157.908539,64.611923 
	C156.860931,65.852501 155.968063,67.223740 154.935272,68.902802 
	C153.139221,69.694496 151.411957,70.118324 149.346741,70.625069 
	C148.932816,66.815941 148.388794,63.129047 148.160950,59.422718 
	C147.756851,52.849380 149.522858,50.614948 156.051865,49.034611 
	C158.773270,48.375896 161.511108,47.785145 164.634521,47.169281 
z"/>
<path fill="#CECDE6" opacity="1.000000" stroke="none" 
	d="
M165.068237,126.974380 
	C165.317719,126.481392 165.567215,125.988403 165.936981,125.244858 
	C174.119934,122.577675 182.212128,120.249039 190.188019,117.573654 
	C190.810852,117.364754 191.230881,114.453339 190.694260,113.277611 
	C189.057571,109.691574 186.906754,106.340179 185.350372,102.516281 
	C186.859985,102.138908 187.975250,102.142715 189.090530,102.146530 
	C191.324341,106.199532 193.527405,110.269936 195.806641,114.297226 
	C196.757263,115.976952 197.869995,117.564926 198.962051,119.536133 
	C187.744827,123.543739 176.474564,127.209839 164.928452,130.474518 
	C164.791138,129.040207 164.929688,128.007294 165.068237,126.974380 
z"/>
<path fill="#EC6E66" opacity="1.000000" stroke="none" 
	d="
M121.976624,137.044830 
	C121.703384,136.865417 121.430145,136.685989 121.078583,135.903748 
	C120.051033,133.849808 119.101799,132.398697 118.152565,130.947586 
	C117.693695,129.548050 117.234825,128.148514 117.201263,126.373894 
	C121.434586,123.947578 125.242599,121.896332 129.359802,119.995285 
	C131.639984,123.103294 133.610962,126.061104 135.221558,129.023270 
	C130.566330,131.700027 126.271469,134.372421 121.976624,137.044830 
z"/>
<path fill="#98A5E7" opacity="1.000000" stroke="none" 
	d="
M189.477509,102.075935 
	C187.975250,102.142715 186.859985,102.138908 185.325500,102.156937 
	C184.731216,101.892212 184.556152,101.605652 184.157654,100.872742 
	C183.960571,99.311310 183.986938,98.196228 184.013290,97.081154 
	C191.004593,95.711044 197.975159,94.213287 205.003571,93.071617 
	C206.526108,92.824303 208.256409,93.856194 209.891022,94.298882 
	C208.570435,95.686615 207.479477,97.847359 205.887146,98.320381 
	C200.644073,99.877930 195.219391,100.824249 189.477509,102.075935 
z"/>
<path fill="#D4D3E9" opacity="1.000000" stroke="none" 
	d="
M127.232216,142.831223 
	C124.605682,143.812729 122.002220,144.862213 119.348259,145.762894 
	C111.634438,148.380768 110.089973,150.548126 110.102646,158.827225 
	C110.104134,159.798294 109.863327,160.769745 109.366112,161.964706 
	C108.023811,160.714447 107.050240,159.240509 106.015366,157.445740 
	C106.305161,155.051514 106.949516,152.977646 106.946175,150.904816 
	C106.939262,146.614548 109.244179,144.389206 112.956680,142.979202 
	C115.991318,141.826691 118.937363,140.440933 122.437988,138.978058 
	C124.379601,140.142105 125.805908,141.486664 127.232216,142.831223 
z"/>
<path fill="#DE5C5A" opacity="1.000000" stroke="none" 
	d="
M127.520180,142.839111 
	C125.805908,141.486664 124.379601,140.142105 122.662079,138.658051 
	C122.262566,138.195633 122.154266,137.872742 122.011299,137.297333 
	C126.271469,134.372421 130.566330,131.700027 135.378632,129.292480 
	C136.306763,130.013489 136.717438,130.469650 137.177963,131.205490 
	C137.842300,132.191010 138.456802,132.896851 139.051590,134.002228 
	C136.137192,136.185593 133.191284,137.894547 130.387787,139.811737 
	C129.772125,140.232742 129.662811,141.394119 129.320328,142.214554 
	C128.816269,142.425369 128.312210,142.636169 127.520180,142.839111 
z"/>
<path fill="#E9635D" opacity="1.000000" stroke="none" 
	d="
M148.020721,99.032990 
	C147.720306,102.735123 147.419891,106.437256 146.661469,110.588226 
	C144.082336,110.924568 141.961197,110.812057 139.880341,110.195679 
	C139.986832,105.423439 140.053024,101.155090 140.119202,96.886734 
	C141.834381,96.908447 143.549576,96.930168 145.682251,97.393913 
	C146.740067,98.234962 147.380402,98.633972 148.020721,99.032990 
z"/>
<path fill="#EF766D" opacity="1.000000" stroke="none" 
	d="
M139.833618,96.701195 
	C140.053024,101.155090 139.986832,105.423439 139.547638,110.279938 
	C137.525436,110.966072 135.876221,111.064064 133.917297,110.874031 
	C133.064484,107.047844 132.521378,103.509682 132.151703,99.735962 
	C132.940903,98.791824 133.556656,98.083237 134.172394,97.374649 
	C134.576660,97.293167 134.980927,97.211685 135.857147,97.305008 
	C136.954056,97.179512 137.578979,96.879196 138.203918,96.578888 
	C138.651947,96.557816 139.099976,96.536736 139.833618,96.701195 
z"/>
<path fill="#F9A39D" opacity="1.000000" stroke="none" 
	d="
M133.811447,97.314880 
	C133.556656,98.083237 132.940903,98.791824 131.835526,99.771042 
	C130.555649,100.683029 129.765411,101.324387 128.676529,102.123337 
	C122.945694,107.030914 119.529434,112.963051 117.977890,120.391754 
	C117.460434,121.886124 116.954918,122.984421 116.449402,124.082718 
	C116.547798,120.657402 115.934433,117.019234 116.882759,113.848091 
	C119.374519,105.515862 125.120758,99.985489 133.811447,97.314880 
z"/>
<path fill="#95A1E1" opacity="1.000000" stroke="none" 
	d="
M176.011902,87.069870 
	C176.759048,87.049065 177.506210,87.028259 178.720642,87.401413 
	C180.188568,88.175339 181.301651,89.054100 182.172394,88.857811 
	C190.524811,86.974915 198.836349,84.910576 207.159592,82.898224 
	C206.033585,84.215454 205.119598,86.357590 203.745789,86.710663 
	C196.894974,88.471336 189.923325,89.761917 182.230743,91.319641 
	C180.299835,91.629250 179.132370,91.837128 177.964920,92.044998 
	C177.455200,91.164452 176.945480,90.283890 176.217560,88.888855 
	C176.003540,87.939545 176.007721,87.504715 176.011902,87.069870 
z"/>
<path fill="#5FB5C2" opacity="1.000000" stroke="none" 
	d="
M181.361481,75.667549 
	C182.157059,74.759987 183.214432,73.485123 184.556061,73.005592 
	C187.179001,72.068077 189.958847,71.567238 192.677002,70.898865 
	C200.783966,68.905441 202.236816,66.581551 200.865784,58.174259 
	C200.417877,55.427784 200.275269,52.631519 200.000793,49.403549 
	C201.014954,54.261803 202.233078,59.545933 202.955872,64.896973 
	C203.467056,68.681267 201.483017,71.176727 197.655411,72.040810 
	C192.352127,73.238029 187.052765,74.452583 181.361481,75.667549 
z"/>
<path fill="#9BA9ED" opacity="1.000000" stroke="none" 
	d="
M207.053253,82.536331 
	C198.836349,84.910576 190.524811,86.974915 182.172394,88.857811 
	C181.301651,89.054100 180.188568,88.175339 179.092987,87.436111 
	C187.483765,85.090492 195.961182,83.066742 204.470108,81.185364 
	C205.187714,81.026688 206.116333,81.822220 207.053253,82.536331 
z"/>
<path fill="#F27E75" opacity="1.000000" stroke="none" 
	d="
M116.491425,124.403580 
	C116.954918,122.984421 117.460434,121.886124 118.349304,120.387047 
	C122.155502,117.991249 125.578362,115.996231 129.136078,114.145996 
	C129.270935,114.290771 129.580719,114.536972 129.534439,114.913528 
	C129.342316,116.808426 129.196472,118.326759 129.050613,119.845093 
	C125.242599,121.896332 121.434586,123.947578 117.233307,125.987991 
	C116.737839,125.559586 116.635643,125.142006 116.491425,124.403580 
z"/>
<path fill="#60B7C7" opacity="1.000000" stroke="none" 
	d="
M157.364899,69.929588 
	C159.373428,66.214508 162.395676,68.458557 165.604919,68.946754 
	C167.764359,75.271233 172.261932,76.802719 178.558670,75.991661 
	C177.246353,76.613953 175.488571,77.230621 172.999481,77.911530 
	C170.827652,77.675652 169.387085,77.375534 167.946533,77.075409 
	C164.534988,74.728386 161.123428,72.381363 157.364899,69.929588 
z"/>
<path fill="#CECDE6" opacity="1.000000" stroke="none" 
	d="
M167.962250,77.440880 
	C169.387085,77.375534 170.827652,77.675652 172.648987,77.996338 
	C174.017059,80.781708 175.004318,83.546524 176.001740,86.690605 
	C176.007721,87.504715 176.003540,87.939545 175.979004,88.700714 
	C173.298431,85.286812 170.638214,81.546585 167.962250,77.440880 
z"/>
<path fill="#CECDE6" opacity="1.000000" stroke="none" 
	d="
M177.978485,92.408524 
	C179.132370,91.837128 180.299835,91.629250 181.826706,91.403290 
	C182.689362,93.072685 183.192596,94.760162 183.854553,96.764404 
	C183.986938,98.196228 183.960571,99.311310 183.951416,100.725845 
	C181.976440,98.274216 179.984238,95.523125 177.978485,92.408524 
z"/>
<path fill="#F27E75" opacity="1.000000" stroke="none" 
	d="
M118.132629,131.289062 
	C119.101799,132.398697 120.051033,133.849808 120.994232,135.665039 
	C120.029701,134.562958 119.071198,133.096741 118.132629,131.289062 
z"/>
<path fill="#EF766D" opacity="1.000000" stroke="none" 
	d="
M148.224548,98.936157 
	C147.380402,98.633972 146.740067,98.234962 146.030441,97.544434 
	C146.831955,97.371483 147.702774,97.490036 148.778870,97.879059 
	C148.886215,98.449814 148.700958,98.679756 148.224548,98.936157 
z"/>
<path fill="#F9A39D" opacity="1.000000" stroke="none" 
	d="
M137.910461,96.457039 
	C137.578979,96.879196 136.954056,97.179512 136.166534,97.291916 
	C136.541641,96.847748 137.079315,96.591469 137.910461,96.457039 
z"/>
<path fill="#FE707A" opacity="1.000000" stroke="none" 
	d="
M247.814514,155.035431 
	C250.994324,156.185425 254.174133,157.335419 257.976868,158.773590 
	C266.658112,164.349686 272.980286,171.245453 274.361267,180.949493 
	C275.224396,187.014832 274.032196,193.372665 273.529633,199.869598 
	C269.814911,204.999130 266.332825,209.858322 262.850739,214.717499 
	C258.155243,216.838043 253.459732,218.958603 247.977875,221.164368 
	C242.787033,221.232071 238.382523,221.214539 233.636841,221.115753 
	C231.867722,220.396454 230.439758,219.758392 229.362869,219.012421 
	C235.956390,216.483063 241.818771,213.557373 245.435944,207.059509 
	C246.739441,203.895737 247.755417,200.943802 248.853302,197.530365 
	C248.536911,185.026917 248.138611,172.984955 247.812057,160.525467 
	C247.860703,158.417099 247.837616,156.726257 247.814514,155.035431 
z"/>
<path fill="#8282DA" opacity="1.000000" stroke="none" 
	d="
M229.011810,219.120331 
	C230.439758,219.758392 231.867722,220.396454 233.550537,221.449966 
	C232.533493,222.249329 231.261566,222.633240 229.989655,223.017151 
	C218.754929,221.198746 211.579651,213.998383 207.347778,204.221512 
	C199.333252,185.705521 204.720505,167.668533 221.414124,156.343201 
	C225.400482,153.638733 230.115051,150.656723 235.536179,154.000122 
	C233.655518,155.069656 231.822372,155.618942 229.643188,156.189545 
	C225.803711,158.456619 222.310287,160.702362 218.528732,163.099838 
	C206.087433,174.965591 203.540497,191.779922 211.976135,205.353973 
	C213.621140,207.572144 215.203659,209.456833 216.900726,211.632172 
	C218.291672,212.975815 219.568054,214.028809 221.041077,215.369812 
	C223.829086,216.811981 226.420441,217.966156 229.011810,219.120331 
z"/>
<path fill="#A7A5E8" opacity="1.000000" stroke="none" 
	d="
M202.035202,166.999649 
	C204.942841,163.246719 207.594284,159.257004 210.804565,155.783813 
	C221.880447,143.800980 243.557343,140.410355 258.138580,147.141785 
	C261.605682,148.742371 264.667694,151.220520 267.961456,153.642761 
	C265.686859,153.124100 263.268005,152.456573 261.061981,151.360672 
	C238.166916,139.986832 211.601700,150.095245 202.155960,173.786346 
	C201.575272,175.242828 200.529648,176.513931 199.356720,177.545135 
	C200.020477,173.812531 201.027847,170.406097 202.035202,166.999649 
z"/>
<path fill="#ACA7E9" opacity="1.000000" stroke="none" 
	d="
M273.762329,199.599243 
	C274.032196,193.372665 275.224396,187.014832 274.361267,180.949493 
	C272.980286,171.245453 266.658112,164.349686 258.310486,158.862946 
	C258.179199,157.590057 258.337189,156.516022 258.506470,155.365311 
	C274.412689,161.440094 282.998901,181.824631 277.600586,197.784912 
	C277.337067,198.564056 277.208069,199.388718 276.627869,200.585571 
	C275.413605,200.519058 274.587982,200.059158 273.762329,199.599243 
z"/>
<path fill="#0A63ED" opacity="1.000000" stroke="none" 
	d="
M229.989243,156.168228 
	C231.822372,155.618942 233.655518,155.069656 235.753723,154.283508 
	C239.705399,154.270203 243.391983,154.493729 247.446533,154.876343 
	C247.837616,156.726257 247.860703,158.417099 247.493683,160.362930 
	C242.584763,159.743927 238.048569,158.947937 233.558350,157.945862 
	C232.299133,157.664825 231.175217,156.777451 229.989243,156.168228 
z"/>
<path fill="#A49EE4" opacity="1.000000" stroke="none" 
	d="
M273.529663,199.869598 
	C274.587982,200.059158 275.413605,200.519058 276.612823,200.985214 
	C273.815186,207.106659 271.894012,214.424316 263.049438,214.995346 
	C266.332825,209.858322 269.814911,204.999130 273.529663,199.869598 
z"/>
<path fill="#908ADC" opacity="1.000000" stroke="none" 
	d="
M230.082489,223.386414 
	C231.261566,222.633240 232.533493,222.249329 233.891724,221.531219 
	C238.382523,221.214539 242.787033,221.232071 247.598785,221.247070 
	C246.992065,222.660797 245.946228,225.310730 244.969437,225.285507 
	C240.028198,225.157990 235.104919,224.334900 230.082489,223.386414 
z"/>
<path fill="#C3C1EF" opacity="1.000000" stroke="none" 
	d="
M201.681656,167.062927 
	C201.027847,170.406097 200.020477,173.812531 199.009720,177.611694 
	C198.659393,180.709366 198.312454,183.414307 197.576294,186.556061 
	C196.154907,186.999741 195.122742,187.006592 194.023300,186.674057 
	C193.889908,185.878433 193.823792,185.422195 193.830688,184.734375 
	C193.903717,184.502792 193.831436,184.022568 193.924118,183.649841 
	C194.165665,182.526123 194.314529,181.775146 194.463409,181.024155 
	C195.919769,177.706055 197.314819,174.359009 198.861328,171.083481 
	C199.520493,169.687378 200.496231,168.440735 201.681656,167.062927 
z"/>
<path fill="#C3C1EF" opacity="1.000000" stroke="none" 
	d="
M198.026001,195.583557 
	C197.207581,196.004486 196.398285,196.010559 195.182388,196.031433 
	C194.518417,194.920639 194.261078,193.795059 193.990219,192.089386 
	C194.025818,191.347443 194.074951,191.185608 194.508789,191.014160 
	C195.917297,191.009705 196.941132,191.014832 197.964966,191.019958 
	C197.988342,192.402878 198.011734,193.785812 198.026001,195.583557 
z"/>
<path fill="#B1B2ED" opacity="1.000000" stroke="none" 
	d="
M197.981018,190.615845 
	C196.941132,191.014832 195.917297,191.009705 194.414337,190.608887 
	C193.833099,189.112030 193.731018,188.010864 193.746078,186.927933 
	C193.863220,186.946182 194.090576,187.013443 194.090576,187.013443 
	C195.122742,187.006592 196.154907,186.999741 197.571442,186.984116 
	C197.969559,188.054153 197.983322,189.132935 197.981018,190.615845 
z"/>
<path fill="#007CF4" opacity="1.000000" stroke="none" 
	d="
M193.757675,184.965958 
	C193.823792,185.422195 193.889908,185.878433 194.023300,186.674057 
	C194.090576,187.013443 193.863220,186.946182 193.397598,186.976089 
	C192.615372,188.668457 192.298767,190.330917 191.982178,191.993378 
	C191.982834,192.437439 191.983475,192.881485 191.599854,193.763290 
	C190.993301,197.517090 190.134232,200.940292 190.670670,204.128693 
	C192.153259,212.941010 191.299683,215.533783 183.474197,219.207092 
	C172.948181,224.148056 162.407562,229.090576 151.664413,233.526733 
	C141.579437,237.691132 131.222885,241.197800 120.983292,244.534790 
	C120.661858,238.719269 120.342964,233.362808 120.405136,227.996277 
	C132.009857,223.584122 143.772812,220.189987 154.329544,214.541458 
	C169.790939,206.268661 184.680969,196.711624 191.574158,179.066086 
	C192.072464,177.790512 193.837143,177.009644 195.013000,175.998749 
	C194.767517,177.431396 194.522049,178.864044 194.369995,180.660431 
	C194.314529,181.775146 194.165665,182.526123 193.795349,183.737793 
	C193.379868,184.497498 193.441116,184.753311 193.757675,184.965958 
z"/>
<path fill="#0171F3" opacity="1.000000" stroke="none" 
	d="
M120.985840,244.993896 
	C131.222885,241.197800 141.579437,237.691132 151.664413,233.526733 
	C162.407562,229.090576 172.948181,224.148056 183.474197,219.207092 
	C191.299683,215.533783 192.153259,212.941010 190.670670,204.128693 
	C190.134232,200.940292 190.993301,197.517090 191.597351,194.096329 
	C192.616074,198.736420 193.253021,203.481232 193.728851,208.791992 
	C194.041107,209.908600 194.514481,210.459274 194.987869,211.009933 
	C195.318604,212.427963 195.649323,213.845993 195.725693,215.887115 
	C195.476944,220.675735 192.760345,222.460068 189.338074,223.873352 
	C175.548553,229.568024 161.860764,235.513016 148.018295,241.074112 
	C139.121979,244.648132 130.021408,247.713730 121.006874,250.627640 
	C120.987335,249.488403 120.973289,248.728745 120.963150,247.597260 
	C120.973320,246.481598 120.979584,245.737747 120.985840,244.993896 
z"/>
<path fill="#1198F7" opacity="1.000000" stroke="none" 
	d="
M120.983299,244.534805 
	C120.979584,245.737747 120.973320,246.481598 120.605698,247.691437 
	C119.833443,249.775208 119.422554,251.393005 118.998695,253.374634 
	C118.939476,254.462616 118.893227,255.186768 118.846985,255.910934 
	C118.133942,255.932999 117.420906,255.955078 116.351189,255.988190 
	C115.455002,255.831070 114.915482,255.662933 114.413635,255.146164 
	C114.720993,254.596939 114.916618,254.339966 115.315475,253.793198 
	C116.014458,250.069595 116.436150,246.579391 116.857857,243.089203 
	C117.233788,240.711929 117.965897,238.328476 117.924721,235.958450 
	C117.734612,225.015976 117.303719,214.077942 117.007652,203.136993 
	C116.646149,189.777878 116.249947,176.418854 116.027863,163.057129 
	C115.875908,153.914444 117.066063,152.607513 125.872246,149.805557 
	C140.019485,145.304153 154.125198,140.672272 168.918243,136.073822 
	C170.058685,136.367462 170.529343,136.682816 170.778137,137.274582 
	C156.144943,142.352921 141.770401,147.269699 127.304672,151.901779 
	C121.289024,153.828049 118.031250,157.694550 118.180542,163.755295 
	C118.486374,176.171356 118.746597,188.588547 119.023323,201.433090 
	C119.355385,210.576065 119.689728,219.291214 120.024071,228.006363 
	C120.342964,233.362808 120.661858,238.719269 120.983299,244.534805 
z"/>
<path fill="#0065F2" opacity="1.000000" stroke="none" 
	d="
M119.259682,255.939621 
	C118.893227,255.186768 118.939476,254.462616 119.312790,253.324081 
	C120.097359,252.275543 120.554863,251.641373 121.012375,251.007202 
	C130.021408,247.713730 139.121979,244.648132 148.018295,241.074112 
	C161.860764,235.513016 175.548553,229.568024 189.338074,223.873352 
	C192.760345,222.460068 195.476944,220.675735 195.732178,216.254791 
	C199.339798,222.543625 199.057877,224.410172 192.529846,227.137115 
	C170.991135,236.134521 149.331116,244.842438 127.686470,253.584213 
	C125.113792,254.623276 122.348427,255.185211 119.259682,255.939621 
z"/>
<path fill="#0171F3" opacity="1.000000" stroke="none" 
	d="
M192.288635,191.995392 
	C192.298767,190.330917 192.615372,188.668457 193.280457,186.957840 
	C193.731018,188.010864 193.833099,189.112030 194.029633,190.618484 
	C194.074951,191.185608 194.025818,191.347443 193.898499,191.750458 
	C193.411896,191.993561 193.003510,191.995483 192.288635,191.995392 
z"/>
<path fill="#0065F2" opacity="1.000000" stroke="none" 
	d="
M194.965668,210.713226 
	C194.514481,210.459274 194.041107,209.908600 193.778976,209.178711 
	C194.307968,209.471832 194.625702,209.944168 194.965668,210.713226 
z"/>
<path fill="#017FF4" opacity="1.000000" stroke="none" 
	d="
M230.000000,117.016953 
	C230.747116,117.008675 231.494247,117.000389 232.950409,116.994659 
	C234.106506,116.998665 234.553543,117.000122 235.000580,117.001572 
	C233.007782,125.076103 231.014984,133.150635 229.012390,141.635788 
	C220.676819,145.207840 212.607468,148.787643 206.313721,155.496796 
	C210.457458,143.582565 209.283493,129.472397 220.997681,121.007668 
	C221.438751,121.001747 221.879837,120.995819 223.017914,120.949196 
	C225.809937,119.611320 227.904968,118.314133 230.000000,117.016953 
z"/>
<path fill="#0086F4" opacity="1.000000" stroke="none" 
	d="
M235.293198,116.725449 
	C234.553543,117.000122 234.106506,116.998665 233.324005,116.993614 
	C235.989105,112.953499 239.662704,113.250374 243.805511,115.669052 
	C241.192825,116.148758 238.389328,116.299034 235.293198,116.725449 
z"/>
<path fill="#0086F4" opacity="1.000000" stroke="none" 
	d="
M220.611328,121.013718 
	C209.283493,129.472397 210.457458,143.582565 206.012253,155.644226 
	C202.478683,162.500305 198.940338,168.941437 195.207520,175.690674 
	C193.837143,177.009644 192.072464,177.790512 191.574158,179.066086 
	C184.680969,196.711624 169.790939,206.268661 154.329544,214.541458 
	C143.772812,220.189987 132.009857,223.584122 120.405136,227.996277 
	C119.689728,219.291214 119.355385,210.576065 119.375153,201.385925 
	C122.369583,199.593399 124.921394,198.043671 127.665260,196.997787 
	C140.879807,191.960831 152.399719,184.523666 162.857346,174.882278 
	C175.850113,162.903641 182.196381,147.066559 189.995911,131.992676 
	C197.865067,129.010849 205.723206,125.999458 213.610565,123.066559 
	C215.770416,122.263412 218.017761,121.695580 220.611328,121.013718 
z"/>
<path fill="#908ADC" opacity="1.000000" stroke="none" 
	d="
M283.101654,235.105118 
	C280.091583,232.624817 277.081512,230.144531 274.022766,227.317108 
	C274.747986,225.999939 275.521820,225.029907 276.600159,223.983078 
	C279.811920,226.460358 282.719208,229.014435 285.820679,231.853088 
	C286.014832,232.137665 285.951416,232.588562 285.878357,232.805298 
	C285.266571,233.470169 284.727844,233.918320 283.871155,234.683380 
	C283.553223,235.000290 283.101654,235.105118 283.101654,235.105118 
z"/>
<path fill="#FACA58" opacity="1.000000" stroke="none" 
	d="
M283.062317,235.416290 
	C283.101654,235.105118 283.553223,235.000290 283.776794,234.937622 
	C283.827423,235.456589 283.654449,236.038208 283.229980,236.799591 
	C282.993317,236.562057 283.008118,236.144760 283.062317,235.416290 
z"/>
<path fill="#047DED" opacity="1.000000" stroke="none" 
	d="
M112.007996,254.991455 
	C109.571815,252.156555 106.631683,249.604828 104.836281,246.409836 
	C102.907433,242.977325 102.053566,238.940735 100.367371,235.083359 
	C100.004120,234.998978 99.999496,235.000000 100.000397,234.667664 
	C100.002037,233.890533 100.002792,233.445755 100.242844,232.762268 
	C100.322151,229.015991 100.162148,225.508453 100.272186,222.252441 
	C102.029327,227.335648 103.516418,232.167328 105.003906,237.331406 
	C105.007057,238.107025 105.009819,238.550247 105.054359,239.361694 
	C106.396400,242.486923 107.696655,245.243912 109.047165,248.320068 
	C110.063263,249.761276 111.029099,250.883316 111.995331,252.378723 
	C111.999817,253.498550 112.003906,254.245010 112.007996,254.991455 
z"/>
<path fill="#0171E7" opacity="1.000000" stroke="none" 
	d="
M112.344086,254.995148 
	C112.003906,254.245010 111.999817,253.498550 112.270889,252.510071 
	C113.376762,252.854218 114.207481,253.440414 115.038193,254.026611 
	C114.916618,254.339966 114.720993,254.596939 114.238220,254.917999 
	C113.576813,255.025238 113.128494,255.012039 112.344086,254.995148 
z"/>
<path fill="#0A87F0" opacity="1.000000" stroke="none" 
	d="
M100.002144,222.000900 
	C100.162148,225.508453 100.322151,229.015991 99.983261,232.531006 
	C98.326218,230.688980 97.168076,228.839493 96.009933,226.990021 
	C96.008087,226.548477 96.006248,226.106949 96.004089,225.334305 
	C95.676674,220.944824 95.349579,216.886444 95.226944,212.296753 
	C95.700348,211.557648 95.901634,211.297501 96.035286,210.985031 
	C97.154831,212.556320 98.274376,214.127625 99.687576,216.283493 
	C99.988213,218.579010 99.995178,220.289963 100.002144,222.000900 
z"/>
<path fill="#0A91EF" opacity="1.000000" stroke="none" 
	d="
M96.052429,227.360138 
	C97.168076,228.839493 98.326218,230.688980 99.743950,232.769714 
	C100.002792,233.445755 100.002037,233.890533 99.997742,234.668915 
	C98.694443,232.578445 97.394684,230.154343 96.052429,227.360138 
z"/>
<path fill="#0171E7" opacity="1.000000" stroke="none" 
	d="
M100.272186,222.252441 
	C99.995178,220.289963 99.988213,218.579010 99.974640,216.441376 
	C104.353546,214.018646 108.739052,212.022614 113.495132,210.021729 
	C114.229233,215.056671 114.592751,220.096466 114.567383,225.578430 
	C106.784348,228.188339 105.895050,229.252441 105.003510,236.998993 
	C103.516418,232.167328 102.029327,227.335648 100.272186,222.252441 
z"/>
<path fill="#0068E6" opacity="1.000000" stroke="none" 
	d="
M105.003906,237.331406 
	C105.895050,229.252441 106.784348,228.188339 114.545349,226.016693 
	C115.400604,231.489197 115.889000,236.965637 116.617630,242.765625 
	C116.436150,246.579391 116.014458,250.069595 115.315475,253.793198 
	C114.207481,253.440414 113.376762,252.854218 112.270493,252.136688 
	C111.029099,250.883316 110.063263,249.761276 109.039459,247.932541 
	C107.658524,244.481720 106.335556,241.737595 105.012581,238.993454 
	C105.009819,238.550247 105.007057,238.107025 105.003906,237.331406 
z"/>
<path fill="#179CF9" opacity="1.000000" stroke="none" 
	d="
M226.633362,114.052589 
	C226.157791,114.905769 225.475891,116.242249 224.438461,116.631729 
	C213.244965,120.834045 201.995499,124.887260 190.376709,128.986862 
	C191.660721,127.837875 193.181137,126.293594 195.022568,125.593185 
	C205.393005,121.648628 215.840622,117.906998 226.633362,114.052589 
z"/>
<path fill="#179CF9" opacity="1.000000" stroke="none" 
	d="
M240.770309,109.749634 
	C239.239578,110.637794 237.479172,111.273468 235.355133,111.950912 
	C236.841202,111.160843 238.690903,110.328995 240.770309,109.749634 
z"/>
<path fill="#179CF9" opacity="1.000000" stroke="none" 
	d="
M171.000000,136.998169 
	C170.529343,136.682816 170.058685,136.367462 169.293457,136.025085 
	C170.101608,135.335342 171.204346,134.672623 172.654770,134.007385 
	C173.000061,134.748993 172.997665,135.493103 172.661880,136.615082 
	C171.885666,136.994690 171.442825,136.996429 171.000000,136.998169 
z"/>
<path fill="#179CF9" opacity="1.000000" stroke="none" 
	d="
M232.686035,112.049545 
	C232.541672,112.634361 232.081619,113.266548 231.304108,113.942978 
	C231.447891,113.357117 231.909134,112.727020 232.686035,112.049545 
z"/>
<path fill="#179CF9" opacity="1.000000" stroke="none" 
	d="
M186.687561,129.052643 
	C186.543076,129.637009 186.082870,130.268005 185.305756,130.943939 
	C185.449844,130.359009 185.910843,129.729141 186.687561,129.052643 
z"/>
<path fill="#179CF9" opacity="1.000000" stroke="none" 
	d="
M180.708008,131.030304 
	C180.454346,131.479919 179.905579,131.953735 179.178711,132.214600 
	C179.471375,131.685944 179.942154,131.370224 180.708008,131.030304 
z"/>
<path fill="#008EF4" opacity="1.000000" stroke="none" 
	d="
M170.778137,137.274582 
	C171.442825,136.996429 171.885666,136.994690 172.660431,136.987198 
	C178.396286,135.325974 183.800217,133.670471 189.600021,132.003815 
	C182.196381,147.066559 175.850113,162.903641 162.857346,174.882278 
	C152.399719,184.523666 140.879807,191.960831 127.665260,196.997787 
	C124.921394,198.043671 122.369583,199.593399 119.377426,200.958099 
	C118.746597,188.588547 118.486374,176.171356 118.180542,163.755295 
	C118.031250,157.694550 121.289024,153.828049 127.304672,151.901779 
	C141.770401,147.269699 156.144943,142.352921 170.778137,137.274582 
z"/>
<path fill="#0086F4" opacity="1.000000" stroke="none" 
	d="
M229.638687,117.055176 
	C227.904968,118.314133 225.809937,119.611320 223.348755,120.948624 
	C225.080841,119.690292 227.179108,118.391846 229.638687,117.055176 
z"/>
<path fill="#FCD680" opacity="1.000000" stroke="none" 
	d="
M254.899567,29.398811 
	C256.664581,28.319769 258.469086,27.623074 260.601715,26.970236 
	C262.493469,29.464243 262.024414,31.566019 259.383484,32.641418 
	C256.913452,33.647213 255.235855,32.580212 254.899567,29.398811 
z"/>
<path fill="#1F92EC" opacity="1.000000" stroke="none" 
	d="
M96.017227,210.599548 
	C95.901634,211.297501 95.700348,211.557648 95.214050,211.886139 
	C90.666405,201.690811 86.315071,191.383575 82.018349,181.053604 
	C80.686234,177.851013 79.338722,174.637360 78.316460,171.330383 
	C77.765450,169.547852 77.887619,167.557205 77.849472,165.328354 
	C82.613037,175.693024 87.351814,186.340851 91.794151,197.110977 
	C93.537544,201.337723 94.617218,205.838226 96.017227,210.599548 
z"/>
<path fill="#BF393B" opacity="1.000000" stroke="none" 
	d="
M129.697845,142.194946 
	C129.662811,141.394119 129.772125,140.232742 130.387787,139.811737 
	C133.191284,137.894547 136.137192,136.185593 139.443695,134.134460 
	C142.427811,132.890305 146.343460,132.626266 147.313110,130.798950 
	C149.914169,125.897186 151.254333,120.326347 153.459198,115.110992 
	C154.245743,117.143951 154.668396,119.087151 155.091034,121.030357 
	C154.724869,122.438843 154.358704,123.847321 153.638809,125.696671 
	C152.736313,127.687927 152.187531,129.238312 151.638763,130.788712 
	C153.271439,130.963608 154.900360,131.212494 156.537689,131.295395 
	C158.766586,131.408203 161.001877,131.394287 163.234436,131.434723 
	C152.181412,135.014938 141.128387,138.595154 129.697845,142.194946 
z"/>
<path fill="#CB4648" opacity="1.000000" stroke="none" 
	d="
M163.449127,131.382172 
	C161.001877,131.394287 158.766586,131.408203 156.537689,131.295395 
	C154.900360,131.212494 153.271439,130.963608 151.638763,130.788712 
	C152.187531,129.238312 152.736313,127.687927 153.621811,126.068176 
	C153.930679,128.696732 155.247543,129.363388 157.705887,128.628418 
	C159.857162,127.985252 162.063889,127.527489 164.657166,126.981102 
	C164.929688,128.007294 164.791138,129.040207 164.516113,130.447800 
	C164.139221,130.988953 163.900604,131.157990 163.449127,131.382172 
z"/>
<path fill="#FCF7F8" opacity="1.000000" stroke="none" 
	d="
M129.359802,119.995293 
	C129.196472,118.326759 129.342316,116.808426 129.767792,114.710922 
	C131.440628,113.141861 132.833817,112.151962 134.227005,111.162064 
	C135.876221,111.064064 137.525436,110.966072 139.507355,110.783813 
	C141.961197,110.812057 144.082336,110.924568 146.603882,110.993729 
	C147.282013,111.094345 147.562408,111.232857 147.828766,111.873184 
	C146.242859,114.379883 143.332840,116.400574 143.364136,118.374619 
	C143.447128,123.608376 141.333832,127.390526 137.743546,130.868927 
	C137.537292,130.873001 137.128113,130.925827 137.128113,130.925827 
	C136.717438,130.469650 136.306763,130.013489 135.739014,129.288116 
	C133.610962,126.061104 131.639984,123.103294 129.359802,119.995293 
z"/>
<path fill="#E8CCD4" opacity="1.000000" stroke="none" 
	d="
M137.177963,131.205490 
	C137.128113,130.925827 137.537292,130.873001 138.129395,130.921722 
	C143.586166,130.220108 147.348175,125.836288 148.044464,120.556152 
	C148.417450,117.727654 149.304459,114.966949 149.959503,112.175652 
	C149.959503,112.175652 150.388535,112.093193 150.761566,112.351318 
	C151.788162,113.413376 152.441711,114.217308 153.095276,115.021240 
	C151.254333,120.326347 149.914169,125.897186 147.313110,130.798950 
	C146.343460,132.626266 142.427811,132.890305 139.463394,133.734940 
	C138.456802,132.896851 137.842300,132.191010 137.177963,131.205490 
z"/>
<path fill="#F5E8ED" opacity="1.000000" stroke="none" 
	d="
M149.670868,112.053528 
	C149.304459,114.966949 148.417450,117.727654 148.044464,120.556152 
	C147.348175,125.836288 143.586166,130.220108 138.335663,130.917664 
	C141.333832,127.390526 143.447128,123.608376 143.364136,118.374619 
	C143.332840,116.400574 146.242859,114.379883 147.982452,112.050308 
	C148.562653,111.790573 148.972443,111.860985 149.670868,112.053528 
z"/>
<path fill="#CB4648" opacity="1.000000" stroke="none" 
	d="
M153.459198,115.110992 
	C152.441711,114.217308 151.788162,113.413376 150.979736,112.340439 
	C156.761566,112.862999 158.272095,115.520935 155.445465,120.927956 
	C154.668396,119.087151 154.245743,117.143951 153.459198,115.110992 
z"/>
<path fill="#F27E75" opacity="1.000000" stroke="none" 
	d="
M133.917297,110.874031 
	C132.833817,112.151962 131.440628,113.141861 129.814072,114.334366 
	C129.580719,114.536972 129.270935,114.290771 129.135574,113.727211 
	C128.991867,109.431015 128.983505,105.698380 128.975159,101.965744 
	C129.765411,101.324387 130.555649,100.683029 131.662079,100.006607 
	C132.521378,103.509682 133.064484,107.047844 133.917297,110.874031 
z"/>
<path fill="#F2877F" opacity="1.000000" stroke="none" 
	d="
M128.676514,102.123337 
	C128.983505,105.698380 128.991867,109.431015 129.000717,113.582436 
	C125.578362,115.996231 122.155502,117.991249 118.361237,119.990967 
	C119.529434,112.963051 122.945694,107.030914 128.676514,102.123337 
z"/>
<path fill="#0171F3" opacity="1.000000" stroke="none" 
	d="
M229.643188,156.189545 
	C231.175217,156.777451 232.299133,157.664825 233.558350,157.945862 
	C238.048569,158.947937 242.584763,159.743927 247.421936,160.780472 
	C248.138611,172.984955 248.536911,185.026917 248.467316,197.534134 
	C240.596634,200.639496 233.117355,203.088486 225.826279,206.007584 
	C222.615707,207.292999 219.787811,209.534256 216.786179,211.341537 
	C215.203659,209.456833 213.621140,207.572144 212.327118,205.311218 
	C213.919556,203.947601 215.334122,203.076202 216.509933,201.954498 
	C226.099884,192.805801 231.566513,181.009491 237.295593,169.388077 
	C239.842392,164.221878 238.617523,162.077835 232.674683,162.067810 
	C228.055923,162.060013 223.436172,162.633179 218.816864,162.948120 
	C222.310287,160.702362 225.803711,158.456619 229.643188,156.189545 
z"/>
<path fill="#0368F2" opacity="1.000000" stroke="none" 
	d="
M216.900726,211.632172 
	C219.787811,209.534256 222.615707,207.292999 225.826279,206.007584 
	C233.117355,203.088486 240.596634,200.639496 248.385391,197.995636 
	C247.755417,200.943802 246.739441,203.895737 245.202972,206.761047 
	C243.902298,206.488434 242.971756,205.929016 242.364868,206.173401 
	C235.163452,209.073456 228.010284,212.093384 220.844452,215.081818 
	C219.568054,214.028809 218.291672,212.975815 216.900726,211.632172 
z"/>
<path fill="#045BEF" opacity="1.000000" stroke="none" 
	d="
M221.041077,215.369827 
	C228.010284,212.093384 235.163452,209.073456 242.364868,206.173401 
	C242.971756,205.929016 243.902298,206.488434 244.915451,206.972870 
	C241.818771,213.557373 235.956390,216.483063 229.362869,219.012421 
	C226.420441,217.966156 223.829086,216.811981 221.041077,215.369827 
z"/>
<path fill="#0178F4" opacity="1.000000" stroke="none" 
	d="
M218.528732,163.099838 
	C223.436172,162.633179 228.055923,162.060013 232.674683,162.067810 
	C238.617523,162.077835 239.842392,164.221878 237.295593,169.388077 
	C231.566513,181.009491 226.099884,192.805801 216.509933,201.954498 
	C215.334122,203.076202 213.919556,203.947601 212.264648,204.977753 
	C203.540497,191.779922 206.087433,174.965591 218.528732,163.099838 
z"/>
<path fill="#0171F3" opacity="1.000000" stroke="none" 
	d="
M193.830688,184.734375 
	C193.441116,184.753311 193.379868,184.497498 193.702667,184.110535 
	C193.831436,184.022568 193.903717,184.502792 193.830688,184.734375 
z"/>
<path fill="#0086F4" opacity="1.000000" stroke="none" 
	d="
M121.006866,250.627625 
	C120.554863,251.641373 120.097359,252.275543 119.325760,252.960266 
	C119.422554,251.393005 119.833443,249.775208 120.601791,248.063248 
	C120.973289,248.728745 120.987335,249.488403 121.006866,250.627625 
z"/>
<path fill="#0171E7" opacity="1.000000" stroke="none" 
	d="
M105.054359,239.361694 
	C106.335556,241.737595 107.658524,244.481720 108.989204,247.613388 
	C107.696655,245.243912 106.396400,242.486923 105.054359,239.361694 
z"/>
</svg>